<?xml version="1.0" standalone="yes"?>

<svg version="1.1" viewBox="0.0 0.0 296.1469816272966 275.3018372703412" fill="none" stroke="none" stroke-linecap="square" stroke-miterlimit="10" xmlns="http://www.w3.org/2000/svg" xmlns:xlink="http://www.w3.org/1999/xlink"><clipPath id="p.0"><path d="m0 0l296.14697 0l0 275.30185l-296.14697 0l0 -275.30185z" clip-rule="nonzero"></path></clipPath><g clip-path="url(#p.0)"><path fill="#000000" fill-opacity="0.0" d="m0 0l296.14697 0l0 275.30185l-296.14697 0z" fill-rule="nonzero"></path><path fill="#ff0000" d="m41.377426 100.199974l0 0c-2.1136398 -20.002892 4.8258667 -39.804543 17.873837 -51.002384c13.04797 -11.197838 29.916065 -11.828003 43.446537 -1.6230965l0 0c4.7929077 -11.630512 13.565323 -19.66058 23.663765 -21.66126c10.098442 -2.000681 20.336815 2.26301 27.618187 11.50139l0 0c4.082947 -10.544971 12.099869 -17.629843 21.205948 -18.740536c9.106094 -1.1106949 18.012604 3.9099808 23.559052 13.280428l0 0c7.3764343 -11.177641 19.112503 -15.883892 30.129974 -12.082333c11.017471 3.8015594 19.337479 15.428137 21.35994 29.848845l0 0c9.037369 3.1744957 16.565323 11.244488 20.63884 22.12495c4.0735474 10.880463 4.2930603 23.504044 0.60183716 34.609215l0 0c8.89917 14.915459 10.9809265 34.790123 5.4683533 52.20713c-5.5125732 17.416992 -17.79123 29.759628 -32.253815 32.421844c-0.10194397 16.346481 -7.0634766 31.34581 -18.20134 39.2166c-11.137848 7.8707886 -24.712814 7.3839874 -35.492493 -1.2727814c-4.5915833 19.577728 -17.51532 33.98285 -33.1877 36.99179c-15.672379 3.0089417 -31.283821 -5.917694 -40.089592 -22.923264c-10.794029 8.382111 -23.745972 10.796722 -35.934128 6.699173c-12.1881485 -4.0975647 -22.585846 -14.362137 -28.847572 -28.478241l0 0c-11.030144 1.6622162 -21.694773 -5.697113 -26.701063 -18.425568c-5.0062923 -12.728455 -3.2885303 -28.116455 4.30077 -38.526993l0 0c-9.839176 -7.457611 -14.859717 -22.255997 -12.443607 -36.67836c2.416109 -14.422363 11.721369 -25.200562 23.063452 -26.714188z" fill-rule="nonzero"></path><path fill="#000000" fill-opacity="0.0" d="m30.539549 164.36345l0 0c4.643137 3.5192719 10.007048 5.115692 15.371542 4.574936m7.0263367 52.378906c2.3069305 -0.347641 4.568161 -1.0838318 6.725376 -2.18956m58.0531 23.967728c-1.6225433 -3.133438 -2.981018 -6.481781 -4.0522842 -9.987991m77.33237 -4.0811462l0 0c0.8371124 -3.5693054 1.3794861 -7.2429047 1.6180878 -10.959488m52.073715 -26.98294c0.10853577 -17.40335 -7.5672607 -33.338043 -19.730392 -40.959656m46.515625 -43.66749c-1.9697876 5.9261627 -4.976898 11.183189 -8.785492 15.358879m-12.453369 -72.094604l0 0c0.33563232 2.3931236 0.49095154 4.822212 0.46383667 7.253601m-51.952866 -25.019386l0 0c-1.8400574 2.7882652 -3.356018 5.9041176 -4.5006714 9.250534m-40.26474 -3.791645l0 0c-0.9805908 2.5325623 -1.7128296 5.2124443 -2.1798553 7.9779167m-49.10286 2.1821632l0 0c2.863037 2.1593513 5.5117416 4.758362 7.8879166 7.739937m-69.2075 44.885826l0 0c0.291317 2.7569199 0.7516098 5.479843 1.3765678 8.143303" fill-rule="nonzero"></path><path stroke="#000000" stroke-width="1.0" stroke-linejoin="round" stroke-linecap="butt" d="m41.377426 100.199974l0 0c-2.1136398 -20.002892 4.8258667 -39.804543 17.873837 -51.002384c13.04797 -11.197838 29.916065 -11.828003 43.446537 -1.6230965l0 0c4.7929077 -11.630512 13.565323 -19.66058 23.663765 -21.66126c10.098442 -2.000681 20.336815 2.26301 27.618187 11.50139l0 0c4.082947 -10.544971 12.099869 -17.629843 21.205948 -18.740536c9.106094 -1.1106949 18.012604 3.9099808 23.559052 13.280428l0 0c7.3764343 -11.177641 19.112503 -15.883892 30.129974 -12.082333c11.017471 3.8015594 19.337479 15.428137 21.35994 29.848845l0 0c9.037369 3.1744957 16.565323 11.244488 20.63884 22.12495c4.0735474 10.880463 4.2930603 23.504044 0.60183716 34.609215l0 0c8.89917 14.915459 10.9809265 34.790123 5.4683533 52.20713c-5.5125732 17.416992 -17.79123 29.759628 -32.253815 32.421844c-0.10194397 16.346481 -7.0634766 31.34581 -18.20134 39.2166c-11.137848 7.8707886 -24.712814 7.3839874 -35.492493 -1.2727814c-4.5915833 19.577728 -17.51532 33.98285 -33.1877 36.99179c-15.672379 3.0089417 -31.283821 -5.917694 -40.089592 -22.923264c-10.794029 8.382111 -23.745972 10.796722 -35.934128 6.699173c-12.1881485 -4.0975647 -22.585846 -14.362137 -28.847572 -28.478241l0 0c-11.030144 1.6622162 -21.694773 -5.697113 -26.701063 -18.425568c-5.0062923 -12.728455 -3.2885303 -28.116455 4.30077 -38.526993l0 0c-9.839176 -7.457611 -14.859717 -22.255997 -12.443607 -36.67836c2.416109 -14.422363 11.721369 -25.200562 23.063452 -26.714188z" fill-rule="nonzero"></path><path stroke="#000000" stroke-width="1.0" stroke-linejoin="round" stroke-linecap="butt" d="m30.539549 164.36345l0 0c4.643137 3.5192719 10.007048 5.115692 15.371542 4.574936m7.0263367 52.378906c2.3069305 -0.347641 4.568161 -1.0838318 6.725376 -2.18956m58.0531 23.967728c-1.6225433 -3.133438 -2.981018 -6.481781 -4.0522842 -9.987991m77.33237 -4.0811462l0 0c0.8371124 -3.5693054 1.3794861 -7.2429047 1.6180878 -10.959488m52.073715 -26.98294c0.10853577 -17.40335 -7.5672607 -33.338043 -19.730392 -40.959656m46.515625 -43.66749c-1.9697876 5.9261627 -4.976898 11.183189 -8.785492 15.358879m-12.453369 -72.094604l0 0c0.33563232 2.3931236 0.49095154 4.822212 0.46383667 7.253601m-51.952866 -25.019386l0 0c-1.8400574 2.7882652 -3.356018 5.9041176 -4.5006714 9.250534m-40.26474 -3.791645l0 0c-0.9805908 2.5325623 -1.7128296 5.2124443 -2.1798553 7.9779167m-49.10286 2.1821632l0 0c2.863037 2.1593513 5.5117416 4.758362 7.8879166 7.739937m-69.2075 44.885826l0 0c0.291317 2.7569199 0.7516098 5.479843 1.3765678 8.143303" fill-rule="nonzero"></path></g></svg>

