<?xml version="1.0" standalone="yes"?>

<svg version="1.1" viewBox="0.0 0.0 719.3779527559055 639.9658792650919" fill="none" stroke="none" stroke-linecap="square" stroke-miterlimit="10" xmlns="http://www.w3.org/2000/svg" xmlns:xlink="http://www.w3.org/1999/xlink"><clipPath id="p.0"><path d="m0 0l719.3779 0l0 639.9659l-719.3779 0l0 -639.9659z" clip-rule="nonzero"></path></clipPath><g clip-path="url(#p.0)"><path fill="#000000" fill-opacity="0.0" d="m0 0l719.3779 0l0 639.9659l-719.3779 0z" fill-rule="nonzero"></path><path fill="#999999" d="m-41.60302 743.8924c25.395315 0 45.982285 -20.586975 45.982285 -45.9823l-45.982285 0c12.697659 0 22.991142 -10.293457 22.991142 -22.99115c0 -12.697632 -10.293484 -22.99115 -22.991142 -22.99115l45.982285 0l0 -597.76965l0 0c0 -25.395315 20.58697 -45.982285 45.982285 -45.982285l623.0315 0c25.395264 0 45.98224 20.586971 45.98224 45.982285c0 25.395313 -20.586975 45.98228 -45.98224 45.98228l-45.9823 0l0 597.76965c0 25.395325 -20.586975 45.9823 -45.9823 45.9823zm137.94685 -689.73425l0 0c0 25.395313 -20.586975 45.98228 -45.982285 45.98228c-12.697659 0 -22.991142 -10.293488 -22.991142 -22.991142c0 -12.697655 10.293484 -22.991138 22.991142 -22.991138z" fill-rule="nonzero"></path><path fill="#7a7a7a" d="m96.343834 54.15814l0 0c0 25.395313 -20.586975 45.98228 -45.982285 45.98228c-12.697659 0 -22.991142 -10.293488 -22.991142 -22.991142c0 -12.697655 10.293484 -22.991138 22.991142 -22.991138zm-91.96457 643.75195c0 25.395325 -20.58697 45.9823 -45.982285 45.9823c-25.39531 0 -45.982285 -20.586975 -45.982285 -45.9823c0 -25.395325 20.586975 -45.9823 45.982285 -45.9823l0 0c12.697659 0 22.991142 10.293518 22.991142 22.99115c0 12.697693 -10.293484 22.99115 -22.991142 22.99115z" fill-rule="nonzero"></path><path fill="#000000" fill-opacity="0.0" d="m4.3792653 651.9278l0 -597.76965l0 0c0 -25.395315 20.58697 -45.982285 45.982285 -45.982285l623.0315 0c25.395264 0 45.98224 20.586971 45.98224 45.982285c0 25.395313 -20.586975 45.98228 -45.98224 45.98228l-45.9823 0l0 597.76965c0 25.395325 -20.586975 45.9823 -45.9823 45.9823l-623.0315 0c-25.39531 0 -45.982285 -20.586975 -45.982285 -45.9823c0 -25.395325 20.586975 -45.9823 45.982285 -45.9823zm45.982285 -643.75195l0 0c25.39531 0 45.982285 20.586971 45.982285 45.982285c0 25.395313 -20.586975 45.98228 -45.982285 45.98228c-12.697659 0 -22.991142 -10.293488 -22.991142 -22.991142c0 -12.697655 10.293484 -22.991138 22.991142 -22.991138l45.982285 0m531.06696 45.98228l-577.0492 0m-91.96457 551.78735l0 0c12.697659 0 22.991142 10.293518 22.991142 22.99115c0 12.697693 -10.293484 22.99115 -22.991142 22.99115l45.982285 0m-45.982285 45.9823c25.395315 0 45.982285 -20.586975 45.982285 -45.9823l0 -45.9823" fill-rule="nonzero"></path><path stroke="#000000" stroke-width="1.0" stroke-linejoin="round" stroke-linecap="butt" d="m4.3792653 651.9278l0 -597.76965l0 0c0 -25.395315 20.58697 -45.982285 45.982285 -45.982285l623.0315 0c25.395264 0 45.98224 20.586971 45.98224 45.982285c0 25.395313 -20.586975 45.98228 -45.98224 45.98228l-45.9823 0l0 597.76965c0 25.395325 -20.586975 45.9823 -45.9823 45.9823l-623.0315 0c-25.39531 0 -45.982285 -20.586975 -45.982285 -45.9823c0 -25.395325 20.586975 -45.9823 45.982285 -45.9823zm45.982285 -643.75195l0 0c25.39531 0 45.982285 20.586971 45.982285 45.982285c0 25.395313 -20.586975 45.98228 -45.982285 45.98228c-12.697659 0 -22.991142 -10.293488 -22.991142 -22.991142c0 -12.697655 10.293484 -22.991138 22.991142 -22.991138l45.982285 0m531.06696 45.98228l-577.0492 0m-91.96457 551.78735l0 0c12.697659 0 22.991142 10.293518 22.991142 22.99115c0 12.697693 -10.293484 22.99115 -22.991142 22.99115l45.982285 0m-45.982285 45.9823c25.395315 0 45.982285 -20.586975 45.982285 -45.9823l0 -45.9823" fill-rule="nonzero"></path><path fill="#efefef" d="m5.8398952 321.1496l621.2598 0l0 318.80316l-621.2598 0z" fill-rule="nonzero"></path><path fill="#ff0000" d="m218.3727 210.20735l-39.700775 39.70079l-39.70079 -39.70079l19.850388 0l0 -52.551178l39.70079 0l0 52.551178z" fill-rule="nonzero"></path><path stroke="#000000" stroke-width="1.0" stroke-linejoin="round" stroke-linecap="butt" d="m218.3727 210.20735l-39.700775 39.70079l-39.70079 -39.70079l19.850388 0l0 -52.551178l39.70079 0l0 52.551178z" fill-rule="nonzero"></path><path fill="#ff0000" d="m352.90552 210.20735l-39.700806 39.70079l-39.700775 -39.70079l19.850403 0l0 -52.551178l39.700775 0l0 52.551178z" fill-rule="nonzero"></path><path stroke="#000000" stroke-width="1.0" stroke-linejoin="round" stroke-linecap="butt" d="m352.90552 210.20735l-39.700806 39.70079l-39.700775 -39.70079l19.850403 0l0 -52.551178l39.700775 0l0 52.551178z" fill-rule="nonzero"></path><path fill="#ff0000" d="m487.43832 210.20735l-39.700806 39.70079l-39.700775 -39.70079l19.850403 0l0 -52.551178l39.700775 0l0 52.551178z" fill-rule="nonzero"></path><path stroke="#000000" stroke-width="1.0" stroke-linejoin="round" stroke-linecap="butt" d="m487.43832 210.20735l-39.700806 39.70079l-39.700775 -39.70079l19.850403 0l0 -52.551178l39.700775 0l0 52.551178z" fill-rule="nonzero"></path></g></svg>

