<?xml version="1.0" standalone="yes"?>

<svg version="1.1" viewBox="0.0 0.0 296.1469816272966 275.3018372703412" fill="none" stroke="none" stroke-linecap="square" stroke-miterlimit="10" xmlns="http://www.w3.org/2000/svg" xmlns:xlink="http://www.w3.org/1999/xlink"><clipPath id="p.0"><path d="m0 0l296.14697 0l0 275.30185l-296.14697 0l0 -275.30185z" clip-rule="nonzero"></path></clipPath><g clip-path="url(#p.0)"><path fill="#000000" fill-opacity="0.0" d="m0 0l296.14697 0l0 275.30185l-296.14697 0z" fill-rule="nonzero"></path><path fill="#ffe599" d="m0 45.885433l0 0c0 -25.341825 20.543608 -45.885433 45.885433 -45.885433l204.38661 0c12.169571 0 23.840714 4.834344 32.445908 13.439532c8.605194 8.605187 13.439514 20.276325 13.439514 32.4459l0 183.53622c0 25.341812 -20.54361 45.885437 -45.88542 45.885437l-204.38661 0c-25.341825 0 -45.885433 -20.543625 -45.885433 -45.885437z" fill-rule="nonzero"></path><path stroke="#000000" stroke-width="1.0" stroke-linejoin="round" stroke-linecap="butt" d="m0 45.885433l0 0c0 -25.341825 20.543608 -45.885433 45.885433 -45.885433l204.38661 0c12.169571 0 23.840714 4.834344 32.445908 13.439532c8.605194 8.605187 13.439514 20.276325 13.439514 32.4459l0 183.53622c0 25.341812 -20.54361 45.885437 -45.88542 45.885437l-204.38661 0c-25.341825 0 -45.885433 -20.543625 -45.885433 -45.885437z" fill-rule="nonzero"></path><path fill="#ffffff" d="m26.31496 65.452194l0 0c0 -20.775597 16.84195 -37.617546 37.61755 -37.617546l162.11923 0l0 0c9.976791 0 19.544968 3.9632664 26.599625 11.017923c7.054657 7.054661 11.017914 16.622833 11.017914 26.599625l0 150.46568c0 20.775604 -16.841934 37.617554 -37.61754 37.617554l-162.11923 0c-20.7756 0 -37.61755 -16.84195 -37.61755 -37.617554z" fill-rule="nonzero"></path><path stroke="#0b5394" stroke-width="1.0" stroke-linejoin="round" stroke-linecap="butt" d="m26.31496 65.452194l0 0c0 -20.775597 16.84195 -37.617546 37.61755 -37.617546l162.11923 0l0 0c9.976791 0 19.544968 3.9632664 26.599625 11.017923c7.054657 7.054661 11.017914 16.622833 11.017914 26.599625l0 150.46568c0 20.775604 -16.841934 37.617554 -37.61754 37.617554l-162.11923 0c-20.7756 0 -37.61755 -16.84195 -37.61755 -37.617554z" fill-rule="nonzero"></path><path fill="#0b5394" d="m127.90619 152.22565l10.140625 2.5625q-3.1875 12.484375 -11.46875 19.046875q-8.28125 6.5625 -20.25 6.5625q-12.390625 0 -20.15625 -5.046875q-7.75 -5.046875 -11.796875 -14.609375q-4.046875 -9.5625 -4.046875 -20.53125q0 -11.953125 4.5625 -20.859375q4.578125 -8.921875 13.015625 -13.546875q8.4375 -4.625 18.578125 -4.625q11.5 0 19.328125 5.859375q7.84375 5.84375 10.921875 16.453125l-9.984375 2.359375q-2.65625 -8.359375 -7.734375 -12.171875q-5.0625 -3.8125 -12.734375 -3.8125q-8.84375 0 -14.78125 4.234375q-5.921875 4.21875 -8.328125 11.359375q-2.390625 7.125 -2.390625 14.703125q0 9.765625 2.84375 17.0625q2.84375 7.28125 8.84375 10.890625q6.015625 3.609375 13.015625 3.609375q8.515625 0 14.421875 -4.90625q5.90625 -4.921875 8.0 -14.59375zm19.289352 -10.4375q0 -19.078125 10.234375 -29.859375q10.25 -10.796875 26.4375 -10.796875q10.609375 0 19.125 5.078125q8.515625 5.0625 12.984375 14.125q4.46875 9.0625 4.46875 20.5625q0 11.640625 -4.703125 20.84375q-4.703125 9.1875 -13.328125 13.921875q-8.609375 4.734375 -18.59375 4.734375q-10.8125 0 -19.328125 -5.21875q-8.515625 -5.234375 -12.90625 -14.265625q-4.390625 -9.046875 -4.390625 -19.125zm10.453125 0.15625q0 13.84375 7.4375 21.8125q7.453125 7.96875 18.6875 7.96875q11.4375 0 18.828125 -8.046875q7.390625 -8.046875 7.390625 -22.84375q0 -9.34375 -3.15625 -16.3125q-3.15625 -6.984375 -9.25 -10.8125q-6.078125 -3.84375 -13.65625 -3.84375q-10.765625 0 -18.53125 7.390625q-7.75 7.390625 -7.75 24.6875z" fill-rule="nonzero"></path></g></svg>

