<?xml version="1.0" standalone="yes"?>

<svg version="1.1" viewBox="0.0 0.0 960.0 720.0" fill="none" stroke="none" stroke-linecap="square" stroke-miterlimit="10" xmlns="http://www.w3.org/2000/svg" xmlns:xlink="http://www.w3.org/1999/xlink"><clipPath id="p.0"><path d="m0 0l960.0 0l0 720.0l-960.0 0l0 -720.0z" clip-rule="nonzero"></path></clipPath><g clip-path="url(#p.0)"><path fill="#000000" fill-opacity="0.0" d="m0 0l960.0 0l0 720.0l-960.0 0z" fill-rule="nonzero"></path><path fill="#000000" fill-opacity="0.0" d="m104.55905 217.06036l588.97644 0l0 403.68506l-588.97644 0z" fill-rule="nonzero"></path><path stroke="#000000" stroke-width="4.0" stroke-linejoin="round" stroke-linecap="butt" d="m104.55905 217.06036l588.97644 0l0 403.68506l-588.97644 0z" fill-rule="nonzero"></path><path fill="#000000" fill-opacity="0.0" d="m696.17584 467.2047l117.79529 0" fill-rule="nonzero"></path><path stroke="#000000" stroke-width="1.0" stroke-linejoin="round" stroke-linecap="butt" d="m696.17584 467.2047l117.79529 0" fill-rule="nonzero"></path><path fill="#000000" fill-opacity="0.0" d="m811.3228 467.2047l0.661438 -453.3228" fill-rule="nonzero"></path><path stroke="#000000" stroke-width="1.0" stroke-linejoin="round" stroke-linecap="butt" d="m811.3228 467.2047l0.661438 -453.3228" fill-rule="nonzero"></path><path fill="#000000" fill-opacity="0.0" d="m811.3228 15.220472l-327.55902 1.322834" fill-rule="nonzero"></path><path stroke="#000000" stroke-width="1.0" stroke-linejoin="round" stroke-linecap="butt" d="m811.3228 15.220472l-327.55902 1.322834" fill-rule="nonzero"></path><path fill="#000000" fill-opacity="0.0" d="m485.0735 17.868767l1.3228455 200.50394" fill-rule="nonzero"></path><path stroke="#000000" stroke-width="1.0" stroke-linejoin="round" stroke-linecap="butt" d="m485.0735 17.868767l1.3228455 200.50394" fill-rule="nonzero"></path><path fill="#000000" fill-opacity="0.0" d="m695.51447 450.0l-0.661438 -56.91339" fill-rule="nonzero"></path><path stroke="#f3f3f3" stroke-width="3.0" stroke-linejoin="round" stroke-linecap="butt" d="m695.51447 450.0l-0.661438 -56.91339" fill-rule="nonzero"></path><path fill="#000000" fill-opacity="0.0" d="m223.67717 219.70604l1.3228302 226.3307" fill-rule="nonzero"></path><path stroke="#000000" stroke-width="2.0" stroke-linejoin="round" stroke-linecap="butt" d="m223.67717 219.70604l1.3228302 226.3307" fill-rule="nonzero"></path><path fill="#000000" fill-opacity="0.0" d="m226.32283 446.02887l-116.472435 0" fill-rule="nonzero"></path><path stroke="#000000" stroke-width="2.0" stroke-linejoin="round" stroke-linecap="butt" d="m226.32283 446.02887l-116.472435 0" fill-rule="nonzero"></path><path fill="#000000" fill-opacity="0.0" d="m317.6483 481.7638l142.92914 0l0 138.99213l-142.92914 0z" fill-rule="nonzero"></path><path stroke="#000000" stroke-width="3.0" stroke-linejoin="round" stroke-linecap="butt" d="m317.6483 481.7638l142.92914 0l0 138.99213l-142.92914 0z" fill-rule="nonzero"></path><path fill="#000000" fill-opacity="0.0" d="m107.20473 480.44095l586.33075 -1.3228455" fill-rule="nonzero"></path><path stroke="#000000" stroke-width="1.0" stroke-linejoin="round" stroke-linecap="butt" d="m107.20473 480.44095l586.33075 -1.3228455" fill-rule="nonzero"></path><path fill="#000000" fill-opacity="0.0" d="m694.853 375.8819l-397.07086 1.322815" fill-rule="nonzero"></path><path stroke="#000000" stroke-width="1.0" stroke-linejoin="round" stroke-linecap="butt" d="m694.853 375.8819l-397.07086 1.322815" fill-rule="nonzero"></path><path fill="#000000" fill-opacity="0.0" d="m297.7953 377.2047l0.6614075 -160.15747" fill-rule="nonzero"></path><path stroke="#000000" stroke-width="1.0" stroke-linejoin="round" stroke-linecap="butt" d="m297.7953 377.2047l0.6614075 -160.15747" fill-rule="nonzero"></path><path fill="#000000" fill-opacity="0.0" d="m299.1181 220.36745l187.2756 0l0 155.52757l-187.2756 0z" fill-rule="nonzero"></path><path stroke="#000000" stroke-width="2.0" stroke-linejoin="round" stroke-linecap="butt" d="m299.1181 220.36745l187.2756 0l0 155.52757l-187.2756 0z" fill-rule="nonzero"></path><path fill="#000000" fill-opacity="0.0" d="m487.72177 221.69029l201.16537 0l0 155.52754l-201.16537 0z" fill-rule="nonzero"></path><path stroke="#000000" stroke-width="2.0" stroke-linejoin="round" stroke-linecap="butt" d="m487.72177 221.69029l201.16537 0l0 155.52754l-201.16537 0z" fill-rule="nonzero"></path><path fill="#000000" fill-opacity="0.0" d="m463.2362 482.4252l98.6142 0l0 87.33859l-98.6142 0z" fill-rule="nonzero"></path><path stroke="#000000" stroke-width="2.0" stroke-linejoin="round" stroke-linecap="butt" d="m463.2362 482.4252l98.6142 0l0 87.33859l-98.6142 0z" fill-rule="nonzero"></path><path fill="#000000" fill-opacity="0.0" d="m243.53018 480.44095l37.7323 0" fill-rule="nonzero"></path><path stroke="#f3f3f3" stroke-width="1.0" stroke-linejoin="round" stroke-linecap="butt" d="m243.53018 480.44095l37.7323 0" fill-rule="nonzero"></path><path fill="#000000" fill-opacity="0.0" d="m362.76642 376.6614l48.850372 0.5354309" fill-rule="nonzero"></path><path stroke="#f3f3f3" stroke-width="3.0" stroke-linejoin="round" stroke-linecap="butt" d="m362.76642 376.6614l48.850372 0.5354309" fill-rule="nonzero"></path><path fill="#000000" fill-opacity="0.0" d="m549.50134 377.7848l38.8031 -0.56695557" fill-rule="nonzero"></path><path stroke="#f3f3f3" stroke-width="3.0" stroke-linejoin="round" stroke-linecap="butt" d="m549.50134 377.7848l38.8031 -0.56695557" fill-rule="nonzero"></path><path fill="#000000" fill-opacity="0.0" d="m595.94226 479.77954l41.984253 -0.661438" fill-rule="nonzero"></path><path stroke="#f3f3f3" stroke-width="3.0" stroke-linejoin="round" stroke-linecap="butt" d="m595.94226 479.77954l41.984253 -0.661438" fill-rule="nonzero"></path><path fill="#000000" fill-opacity="0.0" d="m561.8504 540.66406l0.4724121 -38.26773" fill-rule="nonzero"></path><path stroke="#f3f3f3" stroke-width="3.0" stroke-linejoin="round" stroke-linecap="butt" d="m561.8504 540.66406l0.4724121 -38.26773" fill-rule="nonzero"></path><path fill="#000000" fill-opacity="0.0" d="m389.11285 481.7638l0 138.99213" fill-rule="nonzero"></path><path stroke="#000000" stroke-width="1.0" stroke-linejoin="round" stroke-linecap="butt" d="m389.11285 481.7638l0 138.99213" fill-rule="nonzero"></path></g></svg>

