<?xml version="1.0" encoding="UTF-8" standalone="no"?>
<svg
   xmlns:dc="http://purl.org/dc/elements/1.1/"
   xmlns:cc="http://creativecommons.org/ns#"
   xmlns:rdf="http://www.w3.org/1999/02/22-rdf-syntax-ns#"
   xmlns:svg="http://www.w3.org/2000/svg"
   xmlns="http://www.w3.org/2000/svg"
   style="fill:none;stroke:none;stroke-linecap:square;stroke-miterlimit:10"
   height="49.25"
   width="49.200001"
   id="svg3336"
   stroke-miterlimit="10"
   viewBox="0 0 49.200001 49.249999"
   version="1.1">
  <metadata
     id="metadata3813">
    <rdf:RDF>
      <cc:Work
         rdf:about="">
        <dc:format>image/svg+xml</dc:format>
        <dc:type
           rdf:resource="http://purl.org/dc/dcmitype/StillImage" />
        <dc:title></dc:title>
      </cc:Work>
    </rdf:RDF>
  </metadata>
  <defs
     id="defs3811">
    <clipPath
       id="p.0-7">
      <path
         style="clip-rule:nonzero"
         id="path3339-9"
         d="m 0,0 419.5118,0 0,185.46194 L 0,185.46194 0,0 Z" />
    </clipPath>
    <clipPath
       id="p.0-9">
      <path
         style="clip-rule:nonzero"
         id="path3339-4"
         d="m 0,0 419.5118,0 0,185.46194 L 0,185.46194 0,0 Z" />
    </clipPath>
  </defs>
  <clipPath
     id="p.0">
    <path
       style="clip-rule:nonzero"
       id="path3339"
       d="m 0,0 419.5118,0 0,185.46194 L 0,185.46194 0,0 Z" />
  </clipPath>
  <g
     style="display:inline"
     id="layer2">
    <g
       transform="translate(-348.74242,-4.271429)"
       id="g6459"
       clip-path="url(#p.0-9)"
       style="fill:none;stroke:none;stroke-linecap:square;stroke-miterlimit:10">
      <path
         style="fill:#000000;fill-opacity:0;fill-rule:nonzero"
         id="path6461"
         d="m 0,0 419.5118,0 0,185.46194 -419.5118,0 z" />
      <path
         style="fill:#4a86e8;fill-rule:nonzero"
         id="path6463"
         d="m 112.51821,7.8027725 0,0 c 0,-1.3535719 1.09728,-2.450858 2.45086,-2.450858 l 42.18489,0 c 0.65001,0 1.27339,0.2582145 1.73302,0.7178397 0.45962,0.4596248 0.71785,1.0830102 0.71785,1.7330184 l 0,42.1849004 c 0,1.353569 -1.09729,2.450859 -2.45087,2.450859 l -42.18489,0 c -1.35358,0 -2.45086,-1.09729 -2.45086,-2.450859 z" />
      <path
         style="fill:#000000;fill-rule:nonzero"
         id="path6465"
         d="m 135.17984,8.558161 1.89162,0 0,40.86641 -1.89162,0 z" />
      <path
         style="fill:#000000;fill-rule:nonzero"
         id="path6467"
         d="m 156.56013,28.045612 0,1.891502 -40.86899,0 0,-1.891502 z" />
      <path
         style="fill:#000000;fill-rule:nonzero"
         id="path6469"
         d="m 150.0421,13.924177 1.32336,1.351479 -29.20089,28.59014 -1.32338,-1.351479 z" />
      <path
         style="fill:#000000;fill-rule:nonzero"
         id="path6471"
         d="m 151.07509,42.832863 -1.35156,1.323296 -28.59195,-29.199049 1.35156,-1.323295 z" />
      <path
         style="fill:#000000;fill-rule:nonzero"
         id="path6473"
         d="m 130.36267,29.014032 0,0 c 0,-3.161434 2.56302,-5.724283 5.72466,-5.724283 l 0,0 c 1.51826,0 2.97434,0.603092 4.04792,1.676603 1.07358,1.073511 1.67672,2.529505 1.67672,4.04768 l 0,0 c 0,3.161436 -2.56301,5.724283 -5.72464,5.724283 l 0,0 c -3.16164,0 -5.72466,-2.562847 -5.72466,-5.724283 z" />
      <path
         style="fill-rule:nonzero;stroke:#666666;stroke-width:2;stroke-linecap:butt;stroke-linejoin:round"
         id="path6475"
         d="m 130.36267,29.014032 0,0 c 0,-3.161434 2.56302,-5.724283 5.72466,-5.724283 l 0,0 c 1.51826,0 2.97434,0.603092 4.04792,1.676603 1.07358,1.073511 1.67672,2.529505 1.67672,4.04768 l 0,0 c 0,3.161436 -2.56301,5.724283 -5.72464,5.724283 l 0,0 c -3.16164,0 -5.72466,-2.562847 -5.72466,-5.724283 z" />
      <path
         style="fill:#000000;fill-opacity:0;fill-rule:nonzero"
         id="path6477"
         d="m 120.65912,28.889166 0,0 c 0,-8.532146 6.91667,-15.448818 15.44882,-15.448818 l 0,0 c 4.09728,0 8.02675,1.627638 10.92397,4.524855 2.89721,2.897215 4.52485,6.826683 4.52485,10.923964 l 0,0 c 0,8.532148 -6.91667,15.44882 -15.44882,15.44882 l 0,0 c -8.53215,0 -15.44882,-6.916672 -15.44882,-15.44882 z" />
      <path
         style="fill-rule:nonzero;stroke:#4a86e8;stroke-width:2;stroke-linecap:butt;stroke-linejoin:round"
         id="path6479"
         d="m 120.65912,28.889166 0,0 c 0,-8.532146 6.91667,-15.448818 15.44882,-15.448818 l 0,0 c 4.09728,0 8.02675,1.627638 10.92397,4.524855 2.89721,2.897215 4.52485,6.826683 4.52485,10.923964 l 0,0 c 0,8.532148 -6.91667,15.44882 -15.44882,15.44882 l 0,0 c -8.53215,0 -15.44882,-6.916672 -15.44882,-15.44882 z" />
      <path
         style="fill:#4a86e8;fill-rule:nonzero"
         id="path6481"
         d="m 122.61333,28.869806 0,0 c 0,-7.436274 6.02829,-13.464566 13.46457,-13.464566 l 0,0 c 3.57103,0 6.99579,1.418584 9.52089,3.943681 2.5251,2.525095 3.94368,5.949861 3.94368,9.520885 l 0,0 c 0,7.436277 -6.02829,13.464567 -13.46457,13.464567 l 0,0 c -7.43628,0 -13.46457,-6.02829 -13.46457,-13.464567 z" />
      <path
         style="fill-rule:nonzero;stroke:#000000;stroke-width:2;stroke-linecap:butt;stroke-linejoin:round"
         id="path6483"
         d="m 122.61333,28.869806 0,0 c 0,-7.436274 6.02829,-13.464566 13.46457,-13.464566 l 0,0 c 3.57103,0 6.99579,1.418584 9.52089,3.943681 2.5251,2.525095 3.94368,5.949861 3.94368,9.520885 l 0,0 c 0,7.436277 -6.02829,13.464567 -13.46457,13.464567 l 0,0 c -7.43628,0 -13.46457,-6.02829 -13.46457,-13.464567 z" />
      <path
         style="fill:#000000;fill-opacity:0;fill-rule:nonzero"
         id="path6485"
         d="m 112.56053,7.7796426 0,0 c 0,-1.3535719 1.09729,-2.450858 2.45086,-2.450858 l 42.1849,0 c 0.65001,0 1.27339,0.2582145 1.73302,0.7178397 0.45962,0.4596248 0.71783,1.0830102 0.71783,1.7330184 l 0,42.1848953 c 0,1.353572 -1.09727,2.450859 -2.45085,2.450859 l -42.1849,0 c -1.35357,0 -2.45086,-1.097287 -2.45086,-2.450859 z" />
      <path
         style="fill-rule:nonzero;stroke:#000000;stroke-width:2;stroke-linecap:butt;stroke-linejoin:round"
         id="path6487"
         d="m 112.56053,7.7796426 0,0 c 0,-1.3535719 1.09729,-2.450858 2.45086,-2.450858 l 42.1849,0 c 0.65001,0 1.27339,0.2582145 1.73302,0.7178397 0.45962,0.4596248 0.71783,1.0830102 0.71783,1.7330184 l 0,42.1848953 c 0,1.353572 -1.09727,2.450859 -2.45085,2.450859 l -42.1849,0 c -1.35357,0 -2.45086,-1.097287 -2.45086,-2.450859 z" />
      <path
         style="fill:#00ff00;fill-rule:nonzero"
         id="path6489"
         d="m 167.60416,7.803321 0,0 c 0,-1.3535719 1.09729,-2.4508586 2.45085,-2.4508586 l 42.18491,0 c 0.65001,0 1.27339,0.258215 1.73301,0.7178397 0.45963,0.4596252 0.71784,1.0830107 0.71784,1.7330189 l 0,42.1849 c 0,1.353569 -1.09729,2.450855 -2.45085,2.450855 l -42.18491,0 c -1.35356,0 -2.45085,-1.097286 -2.45085,-2.450855 z" />
      <path
         style="fill:#000000;fill-rule:nonzero"
         id="path6491"
         d="m 190.26578,8.558708 1.89162,0 0,40.866405 -1.89162,0 z" />
      <path
         style="fill:#000000;fill-rule:nonzero"
         id="path6493"
         d="m 211.64609,28.04616 0,1.891502 -40.86899,0 0,-1.891502 z" />
      <path
         style="fill:#000000;fill-rule:nonzero"
         id="path6495"
         d="m 205.12804,13.924726 1.32338,1.351479 -29.2009,28.590137 -1.32338,-1.351479 z" />
      <path
         style="fill:#000000;fill-rule:nonzero"
         id="path6497"
         d="m 206.16104,42.83341 -1.35158,1.323296 -28.59193,-29.199047 1.35156,-1.323295 z" />
      <path
         style="fill:#000000;fill-rule:nonzero"
         id="path6499"
         d="m 185.44862,29.01458 0,0 c 0,-3.161434 2.563,-5.724283 5.72464,-5.724283 l 0,0 c 1.51828,0 2.97437,0.603092 4.04794,1.676603 1.07358,1.073513 1.67671,2.529507 1.67671,4.04768 l 0,0 c 0,3.161434 -2.56301,5.724285 -5.72465,5.724285 l 0,0 c -3.16164,0 -5.72464,-2.562851 -5.72464,-5.724285 z" />
      <path
         style="fill-rule:nonzero;stroke:#666666;stroke-width:2;stroke-linecap:butt;stroke-linejoin:round"
         id="path6501"
         d="m 185.44862,29.01458 0,0 c 0,-3.161434 2.563,-5.724283 5.72464,-5.724283 l 0,0 c 1.51828,0 2.97437,0.603092 4.04794,1.676603 1.07358,1.073513 1.67671,2.529507 1.67671,4.04768 l 0,0 c 0,3.161434 -2.56301,5.724285 -5.72465,5.724285 l 0,0 c -3.16164,0 -5.72464,-2.562851 -5.72464,-5.724285 z" />
      <path
         style="fill:#000000;fill-opacity:0;fill-rule:nonzero"
         id="path6503"
         d="m 175.74507,28.889715 0,0 c 0,-8.532148 6.91667,-15.44882 15.44881,-15.44882 l 0,0 c 4.09729,0 8.02675,1.627639 10.92396,4.524855 2.89722,2.897215 4.52486,6.826683 4.52486,10.923965 l 0,0 c 0,8.532145 -6.91667,15.448816 -15.44882,15.448816 l 0,0 c -8.53214,0 -15.44881,-6.916672 -15.44881,-15.448816 z" />
      <path
         style="fill-rule:nonzero;stroke:#00ff00;stroke-width:2;stroke-linecap:butt;stroke-linejoin:round"
         id="path6505"
         d="m 175.74507,28.889715 0,0 c 0,-8.532148 6.91667,-15.44882 15.44881,-15.44882 l 0,0 c 4.09729,0 8.02675,1.627639 10.92396,4.524855 2.89722,2.897215 4.52486,6.826683 4.52486,10.923965 l 0,0 c 0,8.532145 -6.91667,15.448816 -15.44882,15.448816 l 0,0 c -8.53214,0 -15.44881,-6.916672 -15.44881,-15.448816 z" />
      <path
         style="fill:#00ff00;fill-rule:nonzero"
         id="path6507"
         d="m 177.69928,28.870356 0,0 c 0,-7.436276 6.02829,-13.464567 13.46457,-13.464567 l 0,0 c 3.57101,0 6.99579,1.418585 9.52087,3.94368 2.5251,2.525097 3.94368,5.949861 3.94368,9.520887 l 0,0 c 0,7.436273 -6.02829,13.464567 -13.46455,13.464567 l 0,0 c -7.43628,0 -13.46457,-6.028294 -13.46457,-13.464567 z" />
      <path
         style="fill-rule:nonzero;stroke:#000000;stroke-width:2;stroke-linecap:butt;stroke-linejoin:round"
         id="path6509"
         d="m 177.69928,28.870356 0,0 c 0,-7.436276 6.02829,-13.464567 13.46457,-13.464567 l 0,0 c 3.57101,0 6.99579,1.418585 9.52087,3.94368 2.5251,2.525097 3.94368,5.949861 3.94368,9.520887 l 0,0 c 0,7.436273 -6.02829,13.464567 -13.46455,13.464567 l 0,0 c -7.43628,0 -13.46457,-6.028294 -13.46457,-13.464567 z" />
      <path
         style="fill:#000000;fill-opacity:0;fill-rule:nonzero"
         id="path6511"
         d="m 167.65042,7.803813 0,0 c 0,-1.3535719 1.09727,-2.4508586 2.45085,-2.4508586 l 42.18489,0 c 0.65001,0 1.27341,0.2582149 1.73303,0.7178402 0.45963,0.4596248 0.71784,1.0830102 0.71784,1.7330184 l 0,42.1849 c 0,1.353569 -1.09729,2.450855 -2.45087,2.450855 l -42.18489,0 c -1.35358,0 -2.45085,-1.097286 -2.45085,-2.450855 z" />
      <path
         style="fill-rule:nonzero;stroke:#000000;stroke-width:2;stroke-linecap:butt;stroke-linejoin:round"
         id="path6513"
         d="m 167.65042,7.803813 0,0 c 0,-1.3535719 1.09727,-2.4508586 2.45085,-2.4508586 l 42.18489,0 c 0.65001,0 1.27341,0.2582149 1.73303,0.7178402 0.45963,0.4596248 0.71784,1.0830102 0.71784,1.7330184 l 0,42.1849 c 0,1.353569 -1.09729,2.450855 -2.45087,2.450855 l -42.18489,0 c -1.35358,0 -2.45085,-1.097286 -2.45085,-2.450855 z" />
      <path
         style="fill:#666666;fill-rule:nonzero"
         id="path6515"
         d="m 228.38467,122.47312 0,0 c 0,-1.35358 1.09729,-2.45086 2.45087,-2.45086 l 42.1849,0 c 0.65,0 1.27338,0.25821 1.733,0.71784 0.45963,0.45962 0.71784,1.08301 0.71784,1.73302 l 0,42.1849 c 0,1.35356 -1.09729,2.45085 -2.45084,2.45085 l -42.1849,0 c -1.35358,0 -2.45087,-1.09729 -2.45087,-2.45085 z" />
      <path
         style="fill:#ffffff;fill-rule:nonzero"
         id="path6517"
         d="m 233.13173,127.51627 38.96062,0 0,3.05512 -38.96062,0 z" />
      <path
         style="fill:#000000;fill-opacity:0;fill-rule:nonzero"
         id="path6519"
         d="m 261.1317,128.63808 0,0 c 0,3.37459 -3.81439,6.11023 -8.51967,6.11023 -4.70529,0 -8.51968,-2.73564 -8.51968,-6.11023 l 0,0 c 5.59103,1.01837 11.44832,1.01837 17.03935,0 z" />
      <path
         style="fill-rule:nonzero;stroke:#ffffff;stroke-width:2;stroke-linecap:butt;stroke-linejoin:round"
         id="path6521"
         d="m 261.1317,128.63808 0,0 c 0,3.37459 -3.81439,6.11023 -8.51967,6.11023 -4.70529,0 -8.51968,-2.73564 -8.51968,-6.11023 l 0,0 c 5.59103,1.01837 11.44832,1.01837 17.03935,0 z" />
      <path
         style="fill:#ffffff;fill-rule:nonzero"
         id="path6523"
         d="m 265.76135,151.19853 1.21963,-0.70856 -3.50494,-6.06874 0.8678,-0.50415 3.50494,6.06874 1.21964,-0.70855 1.64468,6.67141 z" />
      <path
         style="fill:#ffffff;fill-rule:nonzero"
         id="path6525"
         d="m 264.87125,142.02441 -1.21967,0.70856 0.79526,1.37642 -0.86777,0.50413 -0.79525,-1.37642 -1.21967,0.70857 -1.64569,-6.67083 z" />
      <path
         style="fill:#ffffff;fill-rule:nonzero"
         id="path6527"
         d="m 250.63228,153.37003 1.41049,-0.004 -9e-4,-7.008 1.00357,-0.003 9e-4,7.008 1.41051,-0.004 -1.91144,6.59978 z" />
      <path
         style="fill:#ffffff;fill-rule:nonzero"
         id="path6529"
         d="m 254.44852,144.9802 -1.41051,0.004 4.9e-4,1.58962 -1.00357,0.003 -4.9e-4,-1.58959 -1.41049,0.004 1.91025,-6.59978 z" />
      <path
         style="fill:#ffffff;fill-rule:nonzero"
         id="path6531"
         d="m 236.43588,149.41438 1.22343,0.70193 3.50307,-6.06964 0.87047,0.49942 -3.50305,6.06966 1.22343,0.70194 -4.95511,4.75999 z" />
      <path
         style="fill:#ffffff;fill-rule:nonzero"
         id="path6533"
         d="m 243.93561,144.0565 -1.22343,-0.70193 -0.79435,1.37689 -0.87046,-0.49942 0.79434,-1.37691 -1.22345,-0.70193 4.9541,-4.76058 z" />
      <path
         style="fill:#000000;fill-opacity:0;fill-rule:nonzero"
         id="path6535"
         d="m 227.69833,122.47452 0,0 c 0,-1.35358 1.09727,-2.45086 2.45085,-2.45086 l 42.18489,0 c 0.65003,0 1.27341,0.25821 1.73303,0.71784 0.45963,0.45962 0.71784,1.08301 0.71784,1.73302 l 0,42.18489 c 0,1.35358 -1.09729,2.45087 -2.45087,2.45087 l -42.18489,0 c -1.35358,0 -2.45085,-1.09729 -2.45085,-2.45087 z" />
      <path
         style="fill-rule:nonzero;stroke:#f5d55e;stroke-width:2;stroke-linecap:butt;stroke-linejoin:round"
         id="path6537"
         d="m 227.69833,122.47452 0,0 c 0,-1.35358 1.09727,-2.45086 2.45085,-2.45086 l 42.18489,0 c 0.65003,0 1.27341,0.25821 1.73303,0.71784 0.45963,0.45962 0.71784,1.08301 0.71784,1.73302 l 0,42.18489 c 0,1.35358 -1.09729,2.45087 -2.45087,2.45087 l -42.18489,0 c -1.35358,0 -2.45085,-1.09729 -2.45085,-2.45087 z" />
      <path
         style="fill:#ffff00;fill-rule:nonzero"
         id="path6539"
         d="m 57.751804,123.61241 0,0 c 0,-1.35357 1.097286,-2.45086 2.450859,-2.45086 l 42.184897,0 c 0.65001,0 1.2734,0.25822 1.73302,0.71784 0.45962,0.45963 0.71784,1.08301 0.71784,1.73302 l 0,42.18491 c 0,1.35356 -1.09729,2.45085 -2.45086,2.45085 l -42.184897,0 c -1.353573,0 -2.450859,-1.09729 -2.450859,-2.45085 z" />
      <path
         style="fill:#000000;fill-rule:nonzero"
         id="path6541"
         d="m 80.41343,124.3678 1.891625,0 0,40.86641 -1.891625,0 z" />
      <path
         style="fill:#000000;fill-rule:nonzero"
         id="path6543"
         d="m 101.79374,143.85526 0,1.89149 -40.868996,0 0,-1.89149 z" />
      <path
         style="fill:#000000;fill-rule:nonzero"
         id="path6545"
         d="m 95.27569,129.73381 1.323379,1.35149 -29.200897,28.59013 -1.323379,-1.35147 z" />
      <path
         style="fill:#000000;fill-rule:nonzero"
         id="path6547"
         d="m 96.308685,158.6425 -1.351563,1.32329 -28.59195,-29.19904 1.351563,-1.3233 z" />
      <path
         style="fill:#000000;fill-rule:nonzero"
         id="path6549"
         d="m 75.596275,144.82367 0,0 c 0,-3.16144 2.563011,-5.72427 5.72464,-5.72427 l 0,0 c 1.518272,0 2.974358,0.60308 4.047935,1.67659 1.073586,1.07351 1.676712,2.52951 1.676712,4.04768 l 0,0 c 0,3.16144 -2.563011,5.72429 -5.724647,5.72429 l 0,0 c -3.161629,0 -5.72464,-2.56285 -5.72464,-5.72429 z" />
      <path
         style="fill-rule:nonzero;stroke:#666666;stroke-width:2;stroke-linecap:butt;stroke-linejoin:round"
         id="path6551"
         d="m 75.596275,144.82367 0,0 c 0,-3.16144 2.563011,-5.72427 5.72464,-5.72427 l 0,0 c 1.518272,0 2.974358,0.60308 4.047935,1.67659 1.073586,1.07351 1.676712,2.52951 1.676712,4.04768 l 0,0 c 0,3.16144 -2.563011,5.72429 -5.724647,5.72429 l 0,0 c -3.161629,0 -5.72464,-2.56285 -5.72464,-5.72429 z" />
      <path
         style="fill:#000000;fill-opacity:0;fill-rule:nonzero"
         id="path6553"
         d="m 65.892715,144.6988 0,0 c 0,-8.53215 6.916672,-15.44882 15.448822,-15.44882 l 0,0 c 4.097282,0 8.026749,1.62764 10.923965,4.52485 2.897209,2.89722 4.524849,6.8267 4.524849,10.92397 l 0,0 c 0,8.53215 -6.916672,15.44882 -15.448814,15.44882 l 0,0 c -8.53215,0 -15.448822,-6.91667 -15.448822,-15.44882 z" />
      <path
         style="fill-rule:nonzero;stroke:#ffff00;stroke-width:2;stroke-linecap:butt;stroke-linejoin:round"
         id="path6555"
         d="m 65.892715,144.6988 0,0 c 0,-8.53215 6.916672,-15.44882 15.448822,-15.44882 l 0,0 c 4.097282,0 8.026749,1.62764 10.923965,4.52485 2.897209,2.89722 4.524849,6.8267 4.524849,10.92397 l 0,0 c 0,8.53215 -6.916672,15.44882 -15.448814,15.44882 l 0,0 c -8.53215,0 -15.448822,-6.91667 -15.448822,-15.44882 z" />
      <path
         style="fill:#ffff00;fill-rule:nonzero"
         id="path6557"
         d="m 67.846924,144.67944 0,0 c 0,-7.43626 6.02829,-13.46457 13.464569,-13.46457 l 0,0 c 3.571022,0 6.995789,1.4186 9.520889,3.94368 2.525093,2.5251 3.94368,5.94988 3.94368,9.52089 l 0,0 c 0,7.43628 -6.028298,13.46457 -13.464569,13.46457 l 0,0 c -7.43628,0 -13.464569,-6.02829 -13.464569,-13.46457 z" />
      <path
         style="fill-rule:nonzero;stroke:#000000;stroke-width:2;stroke-linecap:butt;stroke-linejoin:round"
         id="path6559"
         d="m 67.846924,144.67944 0,0 c 0,-7.43626 6.02829,-13.46457 13.464569,-13.46457 l 0,0 c 3.571022,0 6.995789,1.4186 9.520889,3.94368 2.525093,2.5251 3.94368,5.94988 3.94368,9.52089 l 0,0 c 0,7.43628 -6.028298,13.46457 -13.464569,13.46457 l 0,0 c -7.43628,0 -13.464569,-6.02829 -13.464569,-13.46457 z" />
      <path
         style="fill:#000000;fill-rule:nonzero"
         id="path6561"
         d="m 72.569466,144.68044 0,0 c 0,-1.19154 0.965935,-2.15749 2.157478,-2.15749 l 0,0 c 0.572197,0 1.120964,0.22731 1.525566,0.63192 0.40461,0.4046 0.631913,0.95337 0.631913,1.52557 l 0,0 c 0,1.19154 -0.965935,2.15749 -2.157479,2.15749 l 0,0 c -1.191543,0 -2.157478,-0.96595 -2.157478,-2.15749 z" />
      <path
         style="fill:#000000;fill-rule:nonzero"
         id="path6563"
         d="m 85.93157,144.68044 0,0 c 0,-1.19154 0.965935,-2.15749 2.157478,-2.15749 l 0,0 c 0.572197,0 1.120964,0.22731 1.525566,0.63192 0.40461,0.4046 0.631913,0.95337 0.631913,1.52557 l 0,0 c 0,1.19154 -0.965935,2.15749 -2.157479,2.15749 l 0,0 c -1.191543,0 -2.157478,-0.96595 -2.157478,-2.15749 z" />
      <path
         style="fill:#000000;fill-opacity:0;fill-rule:nonzero"
         id="path6565"
         d="m 57.75082,123.61291 0,0 c 0,-1.35358 1.097286,-2.45086 2.450859,-2.45086 l 42.184891,0 c 0.65001,0 1.2734,0.25822 1.73303,0.71784 0.45962,0.45962 0.71783,1.08301 0.71783,1.73302 l 0,42.1849 c 0,1.35356 -1.09728,2.45085 -2.45086,2.45085 l -42.184891,0 c -1.353573,0 -2.450859,-1.09729 -2.450859,-2.45085 z" />
      <path
         style="fill-rule:nonzero;stroke:#000000;stroke-width:2;stroke-linecap:butt;stroke-linejoin:round"
         id="path6567"
         d="m 57.75082,123.61291 0,0 c 0,-1.35358 1.097286,-2.45086 2.450859,-2.45086 l 42.184891,0 c 0.65001,0 1.2734,0.25822 1.73303,0.71784 0.45962,0.45962 0.71783,1.08301 0.71783,1.73302 l 0,42.1849 c 0,1.35356 -1.09728,2.45085 -2.45086,2.45085 l -42.184891,0 c -1.353573,0 -2.450859,-1.09729 -2.450859,-2.45085 z" />
      <path
         style="fill:#ff9900;fill-rule:nonzero"
         id="path6569"
         d="m 5.312147,65.591415 0,0 c 0,-1.353569 1.0972867,-2.450859 2.4508586,-2.450859 l 42.1849004,0 c 0.650009,0 1.273395,0.258217 1.73302,0.717842 0.459622,0.459625 0.717839,1.083008 0.717839,1.733017 l 0,42.184905 c 0,1.35356 -1.097287,2.45085 -2.450859,2.45085 l -42.1849003,0 c -1.3535719,0 -2.4508586,-1.09729 -2.4508586,-2.45085 z" />
      <path
         style="fill:#000000;fill-rule:nonzero"
         id="path6571"
         d="m 27.973772,66.3468 1.891622,0 0,40.86641 -1.891622,0 z" />
      <path
         style="fill:#000000;fill-rule:nonzero"
         id="path6573"
         d="m 49.35408,85.83426 0,1.891502 -40.86899,0 0,-1.891502 z" />
      <path
         style="fill:#000000;fill-rule:nonzero"
         id="path6575"
         d="m 42.83603,71.71282 1.32338,1.351479 -29.200893,28.590131 -1.323379,-1.35148 z" />
      <path
         style="fill:#000000;fill-rule:nonzero"
         id="path6577"
         d="M 43.869026,100.62151 42.517463,101.9448 13.925517,72.745752 15.277081,71.422456 Z" />
      <path
         style="fill:#000000;fill-rule:nonzero"
         id="path6579"
         d="m 23.156614,86.79493 0,0 c 0,-3.157158 2.566431,-5.716538 5.732284,-5.716538 l 0,0 c 1.520297,0 2.978326,0.602273 4.053335,1.674332 1.075013,1.07206 1.678948,2.526085 1.678948,4.042206 l 0,0 c 0,3.15715 -2.566429,5.71653 -5.732283,5.71653 l 0,0 c -3.165853,0 -5.732284,-2.559379 -5.732284,-5.71653 z" />
      <path
         style="fill-rule:nonzero;stroke:#666666;stroke-width:2;stroke-linecap:butt;stroke-linejoin:round"
         id="path6581"
         d="m 23.156614,86.79493 0,0 c 0,-3.157158 2.566431,-5.716538 5.732284,-5.716538 l 0,0 c 1.520297,0 2.978326,0.602273 4.053335,1.674332 1.075013,1.07206 1.678948,2.526085 1.678948,4.042206 l 0,0 c 0,3.15715 -2.566429,5.71653 -5.732283,5.71653 l 0,0 c -3.165853,0 -5.732284,-2.559379 -5.732284,-5.71653 z" />
      <path
         style="fill:#000000;fill-opacity:0;fill-rule:nonzero"
         id="path6583"
         d="m 13.453059,86.67781 0,0 c 0,-8.53215 6.916673,-15.448822 15.448819,-15.448822 l 0,0 c 4.097282,0 8.026749,1.62764 10.923965,4.524857 2.897213,2.897216 4.524853,6.826683 4.524853,10.923965 l 0,0 c 0,8.532143 -6.916672,15.44881 -15.448818,15.44881 l 0,0 c -8.532146,0 -15.448819,-6.916668 -15.448819,-15.44881 z" />
      <path
         style="fill-rule:nonzero;stroke:#ff9900;stroke-width:2;stroke-linecap:butt;stroke-linejoin:round"
         id="path6585"
         d="m 13.453059,86.67781 0,0 c 0,-8.53215 6.916673,-15.448822 15.448819,-15.448822 l 0,0 c 4.097282,0 8.026749,1.62764 10.923965,4.524857 2.897213,2.897216 4.524853,6.826683 4.524853,10.923965 l 0,0 c 0,8.532143 -6.916672,15.44881 -15.448818,15.44881 l 0,0 c -8.532146,0 -15.448819,-6.916668 -15.448819,-15.44881 z" />
      <path
         style="fill:#ff9900;fill-rule:nonzero"
         id="path6587"
         d="m 15.407268,86.65845 0,0 c 0,-7.436272 6.028293,-13.464561 13.464568,-13.464561 l 0,0 c 3.571024,0 6.99579,1.418579 9.520887,3.94368 2.525093,2.525093 3.94368,5.949859 3.94368,9.520882 l 0,0 c 0,7.436279 -6.028294,13.464569 -13.464567,13.464569 l 0,0 c -7.436276,0 -13.464568,-6.02829 -13.464568,-13.464569 z" />
      <path
         style="fill-rule:nonzero;stroke:#000000;stroke-width:2;stroke-linecap:butt;stroke-linejoin:round"
         id="path6589"
         d="m 15.407268,86.65845 0,0 c 0,-7.436272 6.028293,-13.464561 13.464568,-13.464561 l 0,0 c 3.571024,0 6.99579,1.418579 9.520887,3.94368 2.525093,2.525093 3.94368,5.949859 3.94368,9.520882 l 0,0 c 0,7.436279 -6.028294,13.464569 -13.464567,13.464569 l 0,0 c -7.436276,0 -13.464568,-6.02829 -13.464568,-13.464569 z" />
      <path
         style="fill:#000000;fill-rule:nonzero"
         id="path6591"
         d="m 20.129807,86.65944 0,0 c 0,-1.191544 0.965937,-2.157486 2.15748,-2.157486 l 0,0 c 0.572199,0 1.120962,0.22731 1.525568,0.631912 0.404608,0.40461 0.631912,0.953369 0.631912,1.525574 l 0,0 c 0,1.191544 -0.965936,2.157478 -2.15748,2.157478 l 0,0 c -1.191543,0 -2.15748,-0.965935 -2.15748,-2.157478 z" />
      <path
         style="fill:#000000;fill-rule:nonzero"
         id="path6593"
         d="m 33.491913,86.65944 0,0 c 0,-1.191544 0.965935,-2.157486 2.157478,-2.157486 l 0,0 c 0.572201,0 1.120964,0.22731 1.52557,0.631912 0.404606,0.40461 0.631912,0.953369 0.631912,1.525574 l 0,0 c 0,1.191544 -0.965938,2.157478 -2.157482,2.157478 l 0,0 c -1.191543,0 -2.157478,-0.965935 -2.157478,-2.157478 z" />
      <path
         style="fill:#000000;fill-opacity:0;fill-rule:nonzero"
         id="path6595"
         d="m 5.311163,65.56828 0,0 c 0,-1.353569 1.0972867,-2.450855 2.450858,-2.450855 l 42.1849,0 c 0.650009,0 1.273395,0.258213 1.733021,0.717838 0.459621,0.459625 0.717838,1.083008 0.717838,1.733017 l 0,42.1849 c 0,1.35358 -1.097286,2.45086 -2.450859,2.45086 l -42.1848999,0 c -1.3535714,0 -2.450858,-1.09728 -2.450858,-2.45086 z" />
      <path
         style="fill-rule:nonzero;stroke:#000000;stroke-width:2;stroke-linecap:butt;stroke-linejoin:round"
         id="path6597"
         d="m 5.311163,65.56828 0,0 c 0,-1.353569 1.0972867,-2.450855 2.450858,-2.450855 l 42.1849,0 c 0.650009,0 1.273395,0.258213 1.733021,0.717838 0.459621,0.459625 0.717838,1.083008 0.717838,1.733017 l 0,42.1849 c 0,1.35358 -1.097286,2.45086 -2.450859,2.45086 l -42.1848999,0 c -1.3535714,0 -2.450858,-1.09728 -2.450858,-2.45086 z" />
      <path
         style="fill:#666666;fill-rule:nonzero"
         id="path6599"
         d="m 228.0408,7.6726117 0,0 c 0,-1.3535719 1.09729,-2.4508586 2.45085,-2.4508586 l 42.18489,0 c 0.65003,0 1.27341,0.2582149 1.73303,0.7178397 0.45963,0.4596252 0.71784,1.0830107 0.71784,1.7330189 l 0,42.1849003 c 0,1.353572 -1.09729,2.450859 -2.45087,2.450859 l -42.18489,0 c -1.35356,0 -2.45085,-1.097287 -2.45085,-2.450859 z" />
      <path
         style="fill:#000000;fill-opacity:0;fill-rule:nonzero"
         id="path6601"
         d="m 223.2534,8.982908 56.66142,0 0,49.76378 -56.66142,0 z" />
      <path
         style="fill:#ffffff;fill-rule:nonzero"
         id="path6603"
         d="m 236.09715,35.902905 -3.60938,-13.593748 1.84375,0 2.0625,8.90625 q 0.34375,1.406248 0.57813,2.781248 0.51562,-2.171873 0.60937,-2.515623 l 2.59375,-9.171875 2.17188,0 1.95312,6.875 q 0.73438,2.5625 1.04688,4.812498 0.26562,-1.28125 0.6875,-2.953123 l 2.125,-8.734375 1.8125,0 -3.73438,13.593748 -1.73437,0 -2.85938,-10.359373 q -0.35937,-1.296875 -0.42187,-1.59375 -0.21875,0.9375 -0.40625,1.59375 l -2.89063,10.359373 -1.82812,0 z m 15.03053,-11.687498 0,-1.90625 1.67188,0 0,1.90625 -1.67188,0 z m 0,11.687498 0,-9.859373 1.67188,0 0,9.859373 -1.67188,0 z m 4.4417,0 0,-13.593748 9.17186,0 0,1.59375 -7.375,0 0,4.21875 6.375,0 0,1.609375 -6.375,0 0,6.171873 -1.79686,0 z m 11.0991,-11.687498 0,-1.90625 1.67188,0 0,1.90625 -1.67188,0 z m 0,11.687498 0,-9.859373 1.67188,0 0,9.859373 -1.67188,0 z" />
      <path
         style="fill:#000000;fill-opacity:0;fill-rule:nonzero"
         id="path6605"
         d="m 228.0408,7.6726117 0,0 c 0,-1.3535719 1.09729,-2.4508586 2.45085,-2.4508586 l 42.18489,0 c 0.65003,0 1.27341,0.2582149 1.73303,0.7178397 0.45963,0.4596252 0.71784,1.0830107 0.71784,1.7330189 l 0,42.1849003 c 0,1.353572 -1.09729,2.450859 -2.45087,2.450859 l -42.18489,0 c -1.35356,0 -2.45085,-1.097287 -2.45085,-2.450859 z" />
      <path
         style="fill-rule:nonzero;stroke:#0190dc;stroke-width:2;stroke-linecap:butt;stroke-linejoin:round"
         id="path6607"
         d="m 228.0408,7.6726117 0,0 c 0,-1.3535719 1.09729,-2.4508586 2.45085,-2.4508586 l 42.18489,0 c 0.65003,0 1.27341,0.2582149 1.73303,0.7178397 0.45963,0.4596252 0.71784,1.0830107 0.71784,1.7330189 l 0,42.1849003 c 0,1.353572 -1.09729,2.450859 -2.45087,2.450859 l -42.18489,0 c -1.35356,0 -2.45085,-1.097287 -2.45085,-2.450859 z" />
      <path
         style="fill:#666666;fill-rule:nonzero"
         id="path6609"
         d="m 4.4137545,123.83686 0,0 c 0,-1.35357 1.0972867,-2.45086 2.450858,-2.45086 l 42.1848995,0 c 0.65001,0 1.273392,0.25822 1.733017,0.71784 0.459626,0.45963 0.717843,1.08301 0.717843,1.73302 l 0,42.1849 c 0,1.35358 -1.09729,2.45085 -2.450859,2.45085 l -42.1849004,0 c -1.3535714,0 -2.450858,-1.09727 -2.450858,-2.45085 z" />
      <path
         style="fill:#666666;fill-rule:nonzero"
         id="path6611"
         d="m 9.894995,124.6043 0,35.96709 24.000715,-35.96709 z" />
      <path
         style="fill:#666666;fill-rule:nonzero"
         id="path6613"
         d="m 9.731914,160.68575 0,0 c 5.538829,-1.19116 10.254359,-5.20462 12.736808,-10.84047 2.482449,-5.63585 2.444149,-12.24101 -0.103451,-17.84076 l -16.0468238,9.03592 z" />
      <path
         style="fill:#ffffff;fill-rule:nonzero"
         id="path6615"
         d="m 9.946266,126.04142 0,32.81969 21.898464,-32.81969 z" />
      <path
         style="fill:#ffffff;fill-rule:nonzero"
         id="path6617"
         d="m 9.797744,158.9654 0,0 c 5.053507,-1.08699 9.355844,-4.74913 11.62083,-9.89163 2.264986,-5.14249 2.230167,-11.16944 -0.09405,-16.27912 l -14.6415346,8.24462 z" />
      <path
         style="fill:#666666;fill-rule:nonzero"
         id="path6619"
         d="m 6.239172,124.7337 3.696416,0 0,37.32819 -3.696416,0 z" />
      <path
         style="fill:#666666;fill-rule:nonzero"
         id="path6621"
         d="m 47.897972,124.6043 0,35.96709 -24.000715,-35.96709 z" />
      <path
         style="fill:#666666;fill-rule:nonzero"
         id="path6623"
         d="m 48.061054,160.68575 0,0 c -5.53883,-1.19116 -10.25436,-5.20462 -12.736809,-10.84047 -2.482449,-5.63585 -2.444149,-12.24101 0.103451,-17.84076 l 16.046822,9.03592 z" />
      <path
         style="fill:#ffffff;fill-rule:nonzero"
         id="path6625"
         d="m 47.8467,126.04142 0,32.81969 -21.898462,-32.81969 z" />
      <path
         style="fill:#ffffff;fill-rule:nonzero"
         id="path6627"
         d="m 47.995224,158.9654 0,0 c -5.053509,-1.08699 -9.355846,-4.74913 -11.620831,-9.89163 -2.264984,-5.14249 -2.230167,-11.16944 0.09405,-16.27912 l 14.641533,8.24462 z" />
      <path
         style="fill:#666666;fill-rule:nonzero"
         id="path6629"
         d="m 51.553795,124.7337 -3.696415,0 0,37.32819 3.696415,0 z" />
      <path
         style="fill:#000000;fill-opacity:0;fill-rule:nonzero"
         id="path6631"
         d="m 9.185588,139.6478 39.27559,0" />
      <path
         style="fill-rule:nonzero;stroke:#666666;stroke-width:1;stroke-linecap:butt;stroke-linejoin:round"
         id="path6633"
         d="m 9.185588,139.6478 39.27559,0" />
      <path
         style="fill:#ffffff;fill-rule:nonzero"
         id="path6635"
         d="m 17.681759,160.37225 6.401501,-5.02362 0,2.51181 9.74818,0 0,-2.51181 6.4015,5.02362 -6.4015,5.02362 0,-2.51181 -9.74818,0 0,2.51181 z" />
      <path
         style="fill:#000000;fill-opacity:0;fill-rule:nonzero"
         id="path6637"
         d="m 5.2037807,123.73975 0,0 c 0,-1.35357 1.0972867,-2.45086 2.450858,-2.45086 l 42.1848953,0 c 0.650009,0 1.273395,0.25821 1.73302,0.71784 0.459626,0.45962 0.717839,1.08301 0.717839,1.73302 l 0,42.1849 c 0,1.35356 -1.097286,2.45085 -2.450859,2.45085 l -42.1848952,0 c -1.3535714,0 -2.450858,-1.09729 -2.450858,-2.45085 z" />
      <path
         style="fill-rule:nonzero;stroke:#0190dc;stroke-width:2;stroke-linecap:butt;stroke-linejoin:round"
         id="path6639"
         d="m 5.2037807,123.73975 0,0 c 0,-1.35357 1.0972867,-2.45086 2.450858,-2.45086 l 42.1848953,0 c 0.650009,0 1.273395,0.25821 1.73302,0.71784 0.459626,0.45962 0.717839,1.08301 0.717839,1.73302 l 0,42.1849 c 0,1.35356 -1.097286,2.45085 -2.450859,2.45085 l -42.1848952,0 c -1.3535714,0 -2.450858,-1.09729 -2.450858,-2.45085 z" />
      <path
         style="fill:#666666;fill-rule:nonzero"
         id="path6641"
         d="m 57.793674,7.6715956 0,0 c 0,-1.3535719 1.097286,-2.450858 2.450859,-2.450858 l 42.184897,0 c 0.65001,0 1.2734,0.2582145 1.73302,0.7178397 0.45963,0.4596248 0.71784,1.0830102 0.71784,1.7330184 l 0,42.1849003 c 0,1.353569 -1.09729,2.450855 -2.45086,2.450855 l -42.184897,0 c -1.353573,0 -2.450859,-1.097286 -2.450859,-2.450855 z" />
      <path
         style="fill:#000000;fill-opacity:0;fill-rule:nonzero"
         id="path6643"
         d="m 62.56551,23.482529 39.27559,0" />
      <path
         style="fill-rule:nonzero;stroke:#666666;stroke-width:1;stroke-linecap:butt;stroke-linejoin:round"
         id="path6645"
         d="m 62.56551,23.482529 39.27559,0" />
      <path
         style="fill:#000000;fill-opacity:0;fill-rule:nonzero"
         id="path6647"
         d="m 64.04593,10.150562 34.58268,0 0,34.582676 -34.58268,0 z" />
      <path
         style="fill-rule:nonzero;stroke:#ffffff;stroke-width:2;stroke-linecap:butt;stroke-linejoin:round"
         id="path6649"
         d="m 64.04593,10.150562 34.58268,0 0,34.582676 -34.58268,0 z" />
      <path
         style="fill:#ffffff;fill-rule:nonzero"
         id="path6651"
         d="m 65.61286,11.75637 31.433067,0 0,3.244094 -31.433067,0 z" />
      <path
         style="fill:#ffffff;fill-rule:nonzero"
         id="path6653"
         d="m 65.61286,15.63137 31.433067,0 0,3.244094 -31.433067,0 z" />
      <path
         style="fill:#ffffff;fill-rule:nonzero"
         id="path6655"
         d="m 65.61286,19.554762 31.433067,0 0,3.244095 -31.433067,0 z" />
      <path
         style="fill:#ffffff;fill-rule:nonzero"
         id="path6657"
         d="m 65.620735,23.478645 31.433067,0 0,3.244095 -31.433067,0 z" />
      <path
         style="fill:#ffffff;fill-rule:nonzero"
         id="path6659"
         d="m 65.61286,27.40253 31.433067,0 0,3.244095 -31.433067,0 z" />
      <path
         style="fill:#ffffff;fill-rule:nonzero"
         id="path6661"
         d="m 65.61286,31.326416 31.433067,0 0,3.244095 -31.433067,0 z" />
      <path
         style="fill:#ffffff;fill-rule:nonzero"
         id="path6663"
         d="m 65.620735,35.2503 31.433067,0 0,3.244091 -31.433067,0 z" />
      <path
         style="fill:#000000;fill-rule:nonzero"
         id="path6665"
         d="m 81.33776,13.887767 5.023621,6.401502 -2.511811,0 0,9.748178 2.511811,0 -5.023621,6.401503 -5.023621,-6.401503 2.511811,0 0,-9.748178 -2.511811,0 z" />
      <path
         style="fill:#000000;fill-opacity:0;fill-rule:nonzero"
         id="path6667"
         d="m 57.794987,7.931438 0,0 c 0,-1.3535714 1.097286,-2.450858 2.450859,-2.450858 l 42.184894,0 c 0.65001,0 1.2734,0.2582145 1.73303,0.7178397 0.45962,0.4596252 0.71783,1.0830107 0.71783,1.7330184 l 0,42.1848999 c 0,1.353569 -1.09728,2.450855 -2.45086,2.450855 l -42.184894,0 c -1.353573,0 -2.450859,-1.097286 -2.450859,-2.450855 z" />
      <path
         style="fill-rule:nonzero;stroke:#0190dc;stroke-width:2;stroke-linecap:butt;stroke-linejoin:round"
         id="path6669"
         d="m 57.794987,7.931438 0,0 c 0,-1.3535714 1.097286,-2.450858 2.450859,-2.450858 l 42.184894,0 c 0.65001,0 1.2734,0.2582145 1.73303,0.7178397 0.45962,0.4596252 0.71783,1.0830107 0.71783,1.7330184 l 0,42.1848999 c 0,1.353569 -1.09728,2.450855 -2.45086,2.450855 l -42.184894,0 c -1.353573,0 -2.450859,-1.097286 -2.450859,-2.450855 z" />
      <path
         style="fill:#ffff00;fill-rule:nonzero"
         id="path6671"
         d="m 5.3121963,7.802082 0,0 c 0,-1.3535714 1.0972867,-2.450858 2.450858,-2.450858 l 42.1848997,0 c 0.650009,0 1.273392,0.2582145 1.733017,0.7178397 0.459626,0.4596252 0.717842,1.0830107 0.717842,1.7330184 l 0,42.1848999 c 0,1.353573 -1.097286,2.450859 -2.450859,2.450859 l -42.1848996,0 c -1.3535714,0 -2.450858,-1.097286 -2.450858,-2.450859 z" />
      <path
         id="path6673"
         transform="translate(4.2668484,4.1639986)"
         d="m 23.707031,4.3925781 0,18.0449219 -12.697265,-12.96875 -1.3515629,1.324219 12.8164059,13.08789 -18.255859,0 0,1.890625 17.996094,0 -12.8457034,12.578125 1.3222654,1.351563 13.015625,-12.742188 0,18.300782 1.890625,0 0,-18.1875 L 38.25,39.992188 39.601562,38.667969 26.972656,25.771484 l 18.115235,0 0,-1.890625 -18.238282,0 13.042969,-12.769531 -1.324219,-1.3515624 -12.970703,12.6992184 0,-18.0664059 -1.890625,0 z"
         style="fill:#000000;fill-rule:nonzero" />
      <path
         style="fill:#000000;fill-rule:nonzero"
         id="path6681"
         d="m 23.156664,29.013342 0,0 c 0,-3.161434 2.563011,-5.724283 5.724646,-5.724283 l 0,0 c 1.51827,0 2.974357,0.603092 4.047935,1.676603 1.073582,1.073511 1.676712,2.529505 1.676712,4.04768 l 0,0 c 0,3.161436 -2.563011,5.724283 -5.724647,5.724283 l 0,0 c -3.161635,0 -5.724646,-2.562847 -5.724646,-5.724283 z" />
      <path
         style="fill-rule:nonzero;stroke:#666666;stroke-width:2;stroke-linecap:butt;stroke-linejoin:round"
         id="path6683"
         d="m 23.156664,29.013342 0,0 c 0,-3.161434 2.563011,-5.724283 5.724646,-5.724283 l 0,0 c 1.51827,0 2.974357,0.603092 4.047935,1.676603 1.073582,1.073511 1.676712,2.529505 1.676712,4.04768 l 0,0 c 0,3.161436 -2.563011,5.724283 -5.724647,5.724283 l 0,0 c -3.161635,0 -5.724646,-2.562847 -5.724646,-5.724283 z" />
      <path
         style="fill:#000000;fill-opacity:0;fill-rule:nonzero"
         id="path6685"
         d="m 13.453109,28.888475 0,0 c 0,-8.532146 6.916671,-15.448818 15.448819,-15.448818 l 0,0 c 4.097282,0 8.026749,1.627639 10.923965,4.524855 2.897213,2.897215 4.524853,6.826683 4.524853,10.923964 l 0,0 c 0,8.532148 -6.916672,15.44882 -15.448818,15.44882 l 0,0 c -8.532148,0 -15.448819,-6.916672 -15.448819,-15.44882 z" />
      <path
         style="fill-rule:nonzero;stroke:#ffff00;stroke-width:2;stroke-linecap:butt;stroke-linejoin:round"
         id="path6687"
         d="m 13.453109,28.888475 0,0 c 0,-8.532146 6.916671,-15.448818 15.448819,-15.448818 l 0,0 c 4.097282,0 8.026749,1.627639 10.923965,4.524855 2.897213,2.897215 4.524853,6.826683 4.524853,10.923964 l 0,0 c 0,8.532148 -6.916672,15.44882 -15.448818,15.44882 l 0,0 c -8.532148,0 -15.448819,-6.916672 -15.448819,-15.44882 z" />
      <path
         style="fill:#ffff00;fill-rule:nonzero"
         id="path6689"
         d="m 15.407317,28.869116 0,0 c 0,-7.436274 6.028293,-13.464566 13.464566,-13.464566 l 0,0 c 3.571026,0 6.995792,1.418584 9.520885,3.943681 2.525097,2.525095 3.943684,5.949861 3.943684,9.520885 l 0,0 c 0,7.436277 -6.028294,13.464567 -13.464569,13.464567 l 0,0 c -7.436274,0 -13.464566,-6.02829 -13.464566,-13.464567 z" />
      <path
         style="fill-rule:nonzero;stroke:#000000;stroke-width:2;stroke-linecap:butt;stroke-linejoin:round"
         id="path6691"
         d="m 15.407317,28.869116 0,0 c 0,-7.436274 6.028293,-13.464566 13.464566,-13.464566 l 0,0 c 3.571026,0 6.995792,1.418584 9.520885,3.943681 2.525097,2.525095 3.943684,5.949861 3.943684,9.520885 l 0,0 c 0,7.436277 -6.028294,13.464567 -13.464569,13.464567 l 0,0 c -7.436274,0 -13.464566,-6.02829 -13.464566,-13.464567 z" />
      <path
         style="fill:#000000;fill-opacity:0;fill-rule:nonzero"
         id="path6693"
         d="m 5.358456,7.778952 0,0 c 0,-1.3535714 1.0972867,-2.450858 2.450858,-2.450858 l 42.1849,0 c 0.650005,0 1.273392,0.2582145 1.733017,0.7178397 0.459625,0.4596252 0.717842,1.0830107 0.717842,1.7330184 l 0,42.1848949 c 0,1.353573 -1.09729,2.450859 -2.450859,2.450859 l -42.1848999,0 c -1.3535714,0 -2.450858,-1.097286 -2.450858,-2.450859 z" />
      <path
         style="fill-rule:nonzero;stroke:#000000;stroke-width:2;stroke-linecap:butt;stroke-linejoin:round"
         id="path6695"
         d="m 5.358456,7.778952 0,0 c 0,-1.3535714 1.0972867,-2.450858 2.450858,-2.450858 l 42.1849,0 c 0.650005,0 1.273392,0.2582145 1.733017,0.7178397 0.459625,0.4596252 0.717842,1.0830107 0.717842,1.7330184 l 0,42.1848949 c 0,1.353573 -1.09729,2.450859 -2.450859,2.450859 l -42.1848999,0 c -1.3535714,0 -2.450858,-1.097286 -2.450858,-2.450859 z" />
      <path
         style="fill:#ff9900;fill-rule:nonzero"
         id="path6697"
         d="m 57.79444,65.70757 0,0 c 0,-1.353577 1.09729,-2.450863 2.450859,-2.450863 l 42.184901,0 c 0.65001,0 1.27339,0.258217 1.73302,0.717842 0.45962,0.459622 0.71784,1.083012 0.71784,1.733021 l 0,42.18489 c 0,1.35358 -1.09729,2.45086 -2.45086,2.45086 l -42.184901,0 c -1.353569,0 -2.450859,-1.09728 -2.450859,-2.45086 z" />
      <path
         style="fill:#000000;fill-opacity:0;fill-rule:nonzero"
         id="path6699"
         d="m 57.790833,65.70806 0,0 c 0,-1.353569 1.09729,-2.450859 2.450859,-2.450859 l 42.184898,0 c 0.65001,0 1.27339,0.258217 1.73302,0.717842 0.45962,0.459625 0.71784,1.083008 0.71784,1.733017 l 0,42.1849 c 0,1.35357 -1.09729,2.45086 -2.45086,2.45086 l -42.184898,0 c -1.353569,0 -2.450859,-1.09729 -2.450859,-2.45086 z" />
      <path
         style="fill-rule:nonzero;stroke:#000000;stroke-width:2;stroke-linecap:butt;stroke-linejoin:round"
         id="path6701"
         d="m 57.790833,65.70806 0,0 c 0,-1.353569 1.09729,-2.450859 2.450859,-2.450859 l 42.184898,0 c 0.65001,0 1.27339,0.258217 1.73302,0.717842 0.45962,0.459625 0.71784,1.083008 0.71784,1.733017 l 0,42.1849 c 0,1.35357 -1.09729,2.45086 -2.45086,2.45086 l -42.184898,0 c -1.353569,0 -2.450859,-1.09729 -2.450859,-2.45086 z" />
      <path
         style="fill:#000000;fill-rule:nonzero"
         id="path6703"
         d="m 80.41276,66.46296 1.891625,0 0,40.8664 -1.891625,0 z" />
      <path
         style="fill:#000000;fill-rule:nonzero"
         id="path6705"
         d="m 101.79307,85.95041 0,1.891502 -40.86899,0 0,-1.891502 z" />
      <path
         style="fill:#000000;fill-rule:nonzero"
         id="path6707"
         d="m 95.27502,71.82897 1.323379,1.351479 -29.200896,28.590141 -1.323372,-1.35148 z" />
      <path
         style="fill:#000000;fill-rule:nonzero"
         id="path6709"
         d="m 96.308014,100.73766 -1.351563,1.32329 -28.591949,-29.199041 1.35157,-1.323296 z" />
      <path
         style="fill:#000000;fill-rule:nonzero"
         id="path6711"
         d="m 75.595604,86.91883 0,0 c 0,-3.161438 2.563011,-5.724289 5.724647,-5.724289 l 0,0 c 1.518265,0 2.974358,0.603096 4.047936,1.676605 1.073578,1.073517 1.676712,2.529511 1.676712,4.047684 l 0,0 c 0,3.16143 -2.563011,5.724281 -5.724648,5.724281 l 0,0 c -3.161636,0 -5.724647,-2.562851 -5.724647,-5.724281 z" />
      <path
         style="fill-rule:nonzero;stroke:#666666;stroke-width:2;stroke-linecap:butt;stroke-linejoin:round"
         id="path6713"
         d="m 75.595604,86.91883 0,0 c 0,-3.161438 2.563011,-5.724289 5.724647,-5.724289 l 0,0 c 1.518265,0 2.974358,0.603096 4.047936,1.676605 1.073578,1.073517 1.676712,2.529511 1.676712,4.047684 l 0,0 c 0,3.16143 -2.563011,5.724281 -5.724648,5.724281 l 0,0 c -3.161636,0 -5.724647,-2.562851 -5.724647,-5.724281 z" />
      <path
         style="fill:#000000;fill-opacity:0;fill-rule:nonzero"
         id="path6715"
         d="m 65.863174,86.79921 0,0 c 0,-8.532143 6.916672,-15.448814 15.448822,-15.448814 l 0,0 c 4.097282,0 8.026749,1.62764 10.923965,4.524857 2.897217,2.897209 4.524849,6.826683 4.524849,10.923958 l 0,0 c 0,8.53215 -6.916672,15.448819 -15.448814,15.448819 l 0,0 c -8.53215,0 -15.448822,-6.916669 -15.448822,-15.448819 z" />
      <path
         style="fill-rule:nonzero;stroke:#ff9900;stroke-width:2;stroke-linecap:butt;stroke-linejoin:round"
         id="path6717"
         d="m 65.863174,86.79921 0,0 c 0,-8.532143 6.916672,-15.448814 15.448822,-15.448814 l 0,0 c 4.097282,0 8.026749,1.62764 10.923965,4.524857 2.897217,2.897209 4.524849,6.826683 4.524849,10.923958 l 0,0 c 0,8.53215 -6.916672,15.448819 -15.448814,15.448819 l 0,0 c -8.53215,0 -15.448822,-6.916669 -15.448822,-15.448819 z" />
      <path
         style="fill:#ff9900;fill-rule:nonzero"
         id="path6719"
         d="m 67.84626,86.774605 0,0 c 0,-7.436279 6.02829,-13.464569 13.464561,-13.464569 l 0,0 c 3.57103,0 6.995796,1.418587 9.520889,3.94368 2.525093,2.5251 3.94368,5.949859 3.94368,9.520889 l 0,0 c 0,7.436271 -6.02829,13.464565 -13.464569,13.464565 l 0,0 c -7.436272,0 -13.464561,-6.028294 -13.464561,-13.464565 z" />
      <path
         style="fill-rule:nonzero;stroke:#000000;stroke-width:2;stroke-linecap:butt;stroke-linejoin:round"
         id="path6721"
         d="m 67.84626,86.774605 0,0 c 0,-7.436279 6.02829,-13.464569 13.464561,-13.464569 l 0,0 c 3.57103,0 6.995796,1.418587 9.520889,3.94368 2.525093,2.5251 3.94368,5.949859 3.94368,9.520889 l 0,0 c 0,7.436271 -6.02829,13.464565 -13.464569,13.464565 l 0,0 c -7.436272,0 -13.464561,-6.028294 -13.464561,-13.464565 z" />
      <path
         style="fill:#ffffff;fill-rule:nonzero"
         id="path6723"
         d="m 81.87548,99.255905 0,0 c -7.218842,0 -13.070869,-5.577049 -13.070869,-12.456696 0,-6.879639 5.852028,-12.456688 13.070869,-12.456688 l 0,0 c -5.5112,7.473999 -5.5112,17.439377 0,24.913383 z" />
      <path
         style="fill:#666666;fill-rule:nonzero"
         id="path6725"
         d="m 228.04105,62.819824 0,0 c 0,-1.353569 1.09727,-2.450855 2.45085,-2.450855 l 42.18489,0 c 0.65003,0 1.27341,0.258213 1.73303,0.717838 0.45963,0.459625 0.71784,1.083012 0.71784,1.733017 l 0,42.184896 c 0,1.35357 -1.09729,2.45086 -2.45087,2.45086 l -42.18489,0 c -1.35358,0 -2.45085,-1.09729 -2.45085,-2.45086 z" />
      <path
         style="fill:#ffffff;fill-rule:nonzero"
         id="path6727"
         d="m 236.91861,95.879845 4.48505,0 0,-20.692558 8.97007,0 0,20.692558 4.48503,0 -8.97007,8.970075 z" />
      <path
         style="fill:#ffffff;fill-rule:nonzero"
         id="path6729"
         d="m 266.25076,71.94616 -4.48502,0 0,20.692566 -8.97009,0 0,-20.692566 -4.48505,0 8.9701,-8.970077 z" />
      <path
         style="fill:#000000;fill-opacity:0;fill-rule:nonzero"
         id="path6731"
         d="m 228.04105,62.819824 0,0 c 0,-1.353569 1.09727,-2.450855 2.45085,-2.450855 l 42.18489,0 c 0.65003,0 1.27341,0.258213 1.73303,0.717838 0.45963,0.459625 0.71784,1.083012 0.71784,1.733017 l 0,42.184896 c 0,1.35357 -1.09729,2.45086 -2.45087,2.45086 l -42.18489,0 c -1.35358,0 -2.45085,-1.09729 -2.45085,-2.45086 z" />
      <path
         style="fill-rule:nonzero;stroke:#0190dc;stroke-width:2;stroke-linecap:butt;stroke-linejoin:round"
         id="path6733"
         d="m 228.04105,62.819824 0,0 c 0,-1.353569 1.09727,-2.450855 2.45085,-2.450855 l 42.18489,0 c 0.65003,0 1.27341,0.258213 1.73303,0.717838 0.45963,0.459625 0.71784,1.083012 0.71784,1.733017 l 0,42.184896 c 0,1.35357 -1.09729,2.45086 -2.45087,2.45086 l -42.18489,0 c -1.35358,0 -2.45085,-1.09729 -2.45085,-2.45086 z" />
      <path
         style="fill:#666666;fill-rule:nonzero"
         id="path6735"
         d="m 110.95686,124.32291 0,0 c 0,-1.35356 1.09729,-2.45085 2.45085,-2.45085 l 42.18489,0 c 0.65001,0 1.27341,0.25821 1.73304,0.71784 0.45961,0.45962 0.71783,1.083 0.71783,1.73301 l 0,42.1849 c 0,1.35358 -1.09729,2.45086 -2.45087,2.45086 l -42.18489,0 c -1.35356,0 -2.45085,-1.09728 -2.45085,-2.45086 z" />
      <path
         style="fill:#000000;fill-opacity:0;fill-rule:nonzero"
         id="path6737"
         d="m 105.35712,118.17623 56.8504,0 0,49.76377 -56.8504,0 z" />
      <path
         style="fill:#ffffff;fill-rule:nonzero"
         id="path6739"
         d="m 115.70087,139.58372 q 0,-2.07813 1.45312,-3.53125 1.46875,-1.45313 3.53125,-1.45313 2.0625,0 3.51563,1.46875 1.46875,1.45313 1.46875,3.51563 0,2.0625 -1.46875,3.53125 -1.45313,1.45312 -3.51563,1.45312 -2.0625,0 -3.53125,-1.45312 -1.45312,-1.46875 -1.45312,-3.53125 z m 2.59375,0 q 0,0.98437 0.70312,1.6875 0.70313,0.70312 1.6875,0.70312 0.98438,0 1.6875,-0.70312 0.70313,-0.70313 0.70313,-1.6875 0,-0.98438 -0.70313,-1.6875 -0.70312,-0.70313 -1.6875,-0.70313 -0.98437,0 -1.6875,0.70313 -0.70312,0.70312 -0.70312,1.6875 z m 25.84375,9.89062 4.48437,1.42188 q -1.03125,3.75 -3.4375,5.57812 -2.39062,1.8125 -6.07812,1.8125 -4.5625,0 -7.5,-3.10937 -2.9375,-3.125 -2.9375,-8.53125 0,-5.71875 2.95312,-8.875 2.95313,-3.17188 7.76563,-3.17188 4.20312,0 6.82812,2.48438 1.5625,1.46875 2.34375,4.21875 l -4.57812,1.09375 q -0.40625,-1.78125 -1.70313,-2.8125 -1.28125,-1.03125 -3.125,-1.03125 -2.54687,0 -4.14062,1.82812 -1.57813,1.82813 -1.57813,5.92188 0,4.34375 1.5625,6.1875 1.5625,1.84375 4.0625,1.84375 1.84375,0 3.17188,-1.17188 1.32812,-1.17187 1.90625,-3.6875 z" />
      <path
         style="fill:#000000;fill-opacity:0;fill-rule:nonzero"
         id="path6741"
         d="m 110.95686,124.32291 0,0 c 0,-1.35356 1.09729,-2.45085 2.45085,-2.45085 l 42.18489,0 c 0.65001,0 1.27341,0.25821 1.73304,0.71784 0.45961,0.45962 0.71783,1.083 0.71783,1.73301 l 0,42.1849 c 0,1.35358 -1.09729,2.45086 -2.45087,2.45086 l -42.18489,0 c -1.35356,0 -2.45085,-1.09728 -2.45085,-2.45086 z" />
      <path
         style="fill-rule:nonzero;stroke:#e7221c;stroke-width:2;stroke-linecap:butt;stroke-linejoin:round"
         id="path6743"
         d="m 110.95686,124.32291 0,0 c 0,-1.35356 1.09729,-2.45085 2.45085,-2.45085 l 42.18489,0 c 0.65001,0 1.27341,0.25821 1.73304,0.71784 0.45961,0.45962 0.71783,1.083 0.71783,1.73301 l 0,42.1849 c 0,1.35358 -1.09729,2.45086 -2.45087,2.45086 l -42.18489,0 c -1.35356,0 -2.45085,-1.09728 -2.45085,-2.45086 z" />
      <path
         style="fill:#666666;fill-rule:nonzero"
         id="path6745"
         d="m 166.77254,62.818386 0,0 c 0,-1.353569 1.09729,-2.450859 2.45087,-2.450859 l 42.18489,0 c 0.65001,0 1.27339,0.258217 1.73301,0.717842 0.45963,0.459625 0.71784,1.083012 0.71784,1.733017 l 0,42.184904 c 0,1.35357 -1.09728,2.45085 -2.45085,2.45085 l -42.18489,0 c -1.35358,0 -2.45087,-1.09728 -2.45087,-2.45085 z" />
      <path
         style="fill:#000000;fill-opacity:0;fill-rule:nonzero"
         id="path6747"
         d="m 166.77287,62.81888 0,0 c 0,-1.353569 1.09727,-2.450859 2.45085,-2.450859 l 42.18489,0 c 0.65001,0 1.27341,0.258217 1.73303,0.717842 0.45963,0.459625 0.71784,1.083012 0.71784,1.733017 l 0,42.1849 c 0,1.35357 -1.09729,2.45086 -2.45087,2.45086 l -42.18489,0 c -1.35358,0 -2.45085,-1.09729 -2.45085,-2.45086 z" />
      <path
         style="fill-rule:nonzero;stroke:#4a86e8;stroke-width:2;stroke-linecap:butt;stroke-linejoin:round"
         id="path6749"
         d="m 166.77287,62.81888 0,0 c 0,-1.353569 1.09727,-2.450859 2.45085,-2.450859 l 42.18489,0 c 0.65001,0 1.27341,0.258217 1.73303,0.717842 0.45963,0.459625 0.71784,1.083012 0.71784,1.733017 l 0,42.1849 c 0,1.35357 -1.09729,2.45086 -2.45087,2.45086 l -42.18489,0 c -1.35358,0 -2.45085,-1.09729 -2.45085,-2.45086 z" />
      <path
         style="fill:#000000;fill-opacity:0;fill-rule:nonzero"
         id="path6751"
         d="m 176.86766,79.446495 0,0 c 0,-7.436272 6.02829,-13.464561 13.46457,-13.464561 l 0,0 c 3.57101,0 6.99579,1.418579 9.52089,3.94368 2.52508,2.525093 3.94368,5.949859 3.94368,9.520882 l 0,0 c 0,7.436279 -6.02831,13.464569 -13.46457,13.464569 l 0,0 c -7.43628,0 -13.46457,-6.02829 -13.46457,-13.464569 z" />
      <path
         style="fill-rule:nonzero;stroke:#ffffff;stroke-width:2;stroke-linecap:butt;stroke-linejoin:round"
         id="path6753"
         d="m 176.86766,79.446495 0,0 c 0,-7.436272 6.02829,-13.464561 13.46457,-13.464561 l 0,0 c 3.57101,0 6.99579,1.418579 9.52089,3.94368 2.52508,2.525093 3.94368,5.949859 3.94368,9.520882 l 0,0 c 0,7.436279 -6.02831,13.464569 -13.46457,13.464569 l 0,0 c -7.43628,0 -13.46457,-6.02829 -13.46457,-13.464569 z" />
      <path
         style="fill:#ffffff;fill-rule:nonzero"
         id="path6755"
         d="m 181.5902,79.44749 0,0 c 0,-1.191544 0.96594,-2.157486 2.15749,-2.157486 l 0,0 c 0.57219,0 1.12095,0.22731 1.52555,0.631912 0.40462,0.40461 0.63192,0.953369 0.63192,1.525574 l 0,0 c 0,1.191544 -0.96593,2.157478 -2.15747,2.157478 l 0,0 c -1.19155,0 -2.15749,-0.965935 -2.15749,-2.157478 z" />
      <path
         style="fill:#ffffff;fill-rule:nonzero"
         id="path6757"
         d="m 194.9523,79.44749 0,0 c 0,-1.191544 0.96594,-2.157486 2.15749,-2.157486 l 0,0 c 0.57219,0 1.12095,0.22731 1.52555,0.631912 0.40462,0.40461 0.63192,0.953369 0.63192,1.525574 l 0,0 c 0,1.191544 -0.96593,2.157478 -2.15747,2.157478 l 0,0 c -1.19155,0 -2.15749,-0.965935 -2.15749,-2.157478 z" />
      <path
         style="fill:#000000;fill-opacity:0;fill-rule:nonzero"
         id="path6759"
         d="m 168.52017,84.935905 47.08661,0 0,22.519685 -47.08661,0 z" />
      <path
         style="fill:#ffffff;fill-rule:nonzero"
         id="path6761"
         d="m 183.18242,104.1759 0,-1.89062 -3.42188,0 0,-0.875 3.59375,-5.10938 0.78125,0 0,5.10938 1.07813,0 0,0.875 -1.07813,0 0,1.89062 -0.95312,0 z m 0,-2.76562 0,-3.562505 -2.46875,3.562505 2.46875,0 z m 2.81712,-1.125 q 0,-1.39063 0.28125,-2.23438 0.29688,-0.859375 0.85938,-1.3125 0.57812,-0.46875 1.4375,-0.46875 0.625,0 1.09375,0.265625 0.48437,0.25 0.79687,0.734375 0.3125,0.46875 0.48438,1.171875 0.1875,0.6875 0.1875,1.843755 0,1.39062 -0.29688,2.25 -0.28125,0.84375 -0.84375,1.3125 -0.5625,0.46875 -1.42187,0.46875 -1.14063,0 -1.79688,-0.82813 -0.78125,-0.98437 -0.78125,-3.20312 z m 1,0 q 0,1.95312 0.45313,2.59375 0.45312,0.64062 1.125,0.64062 0.65625,0 1.10937,-0.64062 0.45313,-0.65625 0.45313,-2.59375 0,-1.937505 -0.45313,-2.57813 -0.45312,-0.640625 -1.125,-0.640625 -0.67187,0 -1.0625,0.5625 -0.5,0.71875 -0.5,2.656255 z m 4.9265,0 q 0,-1.39063 0.28125,-2.23438 0.29688,-0.859375 0.85938,-1.3125 0.57812,-0.46875 1.4375,-0.46875 0.625,0 1.09375,0.265625 0.48437,0.25 0.79687,0.734375 0.3125,0.46875 0.48438,1.171875 0.1875,0.6875 0.1875,1.843755 0,1.39062 -0.29688,2.25 -0.28125,0.84375 -0.84375,1.3125 -0.5625,0.46875 -1.42187,0.46875 -1.14063,0 -1.79688,-0.82813 -0.78125,-0.98437 -0.78125,-3.20312 z m 1,0 q 0,1.95312 0.45313,2.59375 0.45312,0.64062 1.125,0.64062 0.65625,0 1.10937,-0.64062 0.45313,-0.65625 0.45313,-2.59375 0,-1.937505 -0.45313,-2.57813 -0.45312,-0.640625 -1.125,-0.640625 -0.67187,0 -1.0625,0.5625 -0.5,0.71875 -0.5,2.656255 z m 7.56713,3.89062 -3.04688,-7.875 1.125,0 2.04688,5.71875 q 0.25,0.6875 0.42187,1.29688 0.17188,-0.65625 0.42188,-1.29688 l 2.125,-5.71875 1.0625,0 -3.07813,7.875 -1.07812,0 z" />
      <path
         style="fill:#666666;fill-rule:nonzero"
         id="path6763"
         d="m 111.7354,65.70664 0,0 c 0,-1.353577 1.09728,-2.450859 2.45086,-2.450859 l 42.1849,0 c 0.65001,0 1.27339,0.258213 1.73302,0.717838 0.45962,0.459622 0.71783,1.083012 0.71783,1.733021 l 0,42.1849 c 0,1.35357 -1.09729,2.45086 -2.45085,2.45086 l -42.1849,0 c -1.35358,0 -2.45086,-1.09729 -2.45086,-2.45086 z" />
      <path
         style="fill:#000000;fill-opacity:0;fill-rule:nonzero"
         id="path6765"
         d="m 111.73573,65.70713 0,0 c 0,-1.353569 1.09728,-2.450855 2.45085,-2.450855 l 42.18489,0 c 0.65001,0 1.2734,0.258213 1.73302,0.717838 0.45963,0.459625 0.71785,1.083008 0.71785,1.733017 l 0,42.1849 c 0,1.35357 -1.09729,2.45086 -2.45087,2.45086 l -42.18489,0 c -1.35357,0 -2.45085,-1.09729 -2.45085,-2.45086 z" />
      <path
         style="fill-rule:nonzero;stroke:#4a86e8;stroke-width:2;stroke-linecap:butt;stroke-linejoin:round"
         id="path6767"
         d="m 111.73573,65.70713 0,0 c 0,-1.353569 1.09728,-2.450855 2.45085,-2.450855 l 42.18489,0 c 0.65001,0 1.2734,0.258213 1.73302,0.717838 0.45963,0.459625 0.71785,1.083008 0.71785,1.733017 l 0,42.1849 c 0,1.35357 -1.09729,2.45086 -2.45087,2.45086 l -42.18489,0 c -1.35357,0 -2.45085,-1.09729 -2.45085,-2.45086 z" />
      <path
         style="fill:#000000;fill-opacity:0;fill-rule:nonzero"
         id="path6769"
         d="m 121.83051,82.33475 0,0 c 0,-7.436272 6.0283,-13.464561 13.46458,-13.464561 l 0,0 c 3.57101,0 6.99579,1.418579 9.52087,3.94368 2.5251,2.525093 3.94368,5.949859 3.94368,9.520882 l 0,0 c 0,7.436279 -6.02829,13.464569 -13.46455,13.464569 l 0,0 c -7.43628,0 -13.46458,-6.02829 -13.46458,-13.464569 z" />
      <path
         style="fill-rule:nonzero;stroke:#ffffff;stroke-width:2;stroke-linecap:butt;stroke-linejoin:round"
         id="path6771"
         d="m 121.83051,82.33475 0,0 c 0,-7.436272 6.0283,-13.464561 13.46458,-13.464561 l 0,0 c 3.57101,0 6.99579,1.418579 9.52087,3.94368 2.5251,2.525093 3.94368,5.949859 3.94368,9.520882 l 0,0 c 0,7.436279 -6.02829,13.464569 -13.46455,13.464569 l 0,0 c -7.43628,0 -13.46458,-6.02829 -13.46458,-13.464569 z" />
      <path
         style="fill:#ffffff;fill-rule:nonzero"
         id="path6773"
         d="m 126.55306,82.33574 0,0 c 0,-1.191544 0.96593,-2.157486 2.15748,-2.157486 l 0,0 c 0.57219,0 1.12096,0.22731 1.52556,0.631912 0.40462,0.40461 0.63191,0.953369 0.63191,1.525574 l 0,0 c 0,1.191544 -0.96593,2.157478 -2.15747,2.157478 l 0,0 c -1.19155,0 -2.15748,-0.965935 -2.15748,-2.157478 z" />
      <path
         style="fill:#ffffff;fill-rule:nonzero"
         id="path6775"
         d="m 139.91516,82.33574 0,0 c 0,-1.191544 0.96594,-2.157486 2.15749,-2.157486 l 0,0 c 0.57219,0 1.12095,0.22731 1.52555,0.631912 0.40461,0.40461 0.63192,0.953369 0.63192,1.525574 l 0,0 c 0,1.191544 -0.96593,2.157478 -2.15747,2.157478 l 0,0 c -1.19155,0 -2.15749,-0.965935 -2.15749,-2.157478 z" />
      <path
         style="fill:#000000;fill-opacity:0;fill-rule:nonzero"
         id="path6777"
         d="m 113.48303,87.82416 47.08661,0 0,22.51968 -47.08661,0 z" />
      <path
         style="fill:#ffffff;fill-rule:nonzero"
         id="path6779"
         d="m 130.11403,106.14228 0,0.92188 -5.20313,0 q 0,-0.34375 0.125,-0.67188 0.1875,-0.53125 0.625,-1.04687 0.4375,-0.51563 1.26562,-1.1875 1.28126,-1.0625 1.73439,-1.67188 0.45312,-0.60937 0.45312,-1.15625 0,-0.57812 -0.40625,-0.96875 -0.40625,-0.40625 -1.07813,-0.40625 -0.6875,0 -1.10938,0.42188 -0.42187,0.42187 -0.42187,1.15625 l -1,-0.0937 q 0.10937,-1.10938 0.76562,-1.687505 0.67188,-0.59375 1.79688,-0.59375 1.12501,0 1.78126,0.625 0.67187,0.625005 0.67187,1.562505 0,0.46875 -0.20312,0.9375 -0.1875,0.45312 -0.64063,0.95312 -0.4375,0.5 -1.48438,1.39063 -0.875,0.71875 -1.125,0.98437 -0.23438,0.26563 -0.40625,0.53125 l 3.85938,0 z m 0.864,-1.15625 0.95312,-0.125 q 0.17188,0.8125 0.5625,1.1875 0.40625,0.35938 0.98438,0.35938 0.6875,0 1.15625,-0.46875 0.46875,-0.48438 0.46875,-1.17188 0,-0.67187 -0.4375,-1.09375 -0.4375,-0.4375 -1.10938,-0.4375 -0.26562,0 -0.67187,0.0937 l 0.0937,-0.84375 q 0.10937,0.0156 0.15625,0.0156 0.625,0 1.10937,-0.3125 0.5,-0.32813 0.5,-1 0,-0.53125 -0.35937,-0.875 -0.35938,-0.35938 -0.92188,-0.35938 -0.5625,0 -0.9375,0.35938 -0.375,0.34375 -0.48437,1.0625 l -0.96875,-0.17188 q 0.17187,-0.98437 0.79687,-1.515625 0.64063,-0.53125 1.5625,-0.53125 0.65625,0 1.1875,0.28125 0.54688,0.265625 0.82813,0.750005 0.29687,0.48437 0.29687,1.01562 0,0.51563 -0.28125,0.9375 -0.26562,0.40625 -0.8125,0.65625 0.70313,0.15625 1.09375,0.67188 0.39063,0.5 0.39063,1.26562 0,1.03125 -0.76563,1.75 -0.75,0.71875 -1.89062,0.71875 -1.04688,0 -1.73438,-0.60937 -0.67187,-0.625 -0.76562,-1.60938 z m 5.91087,-1.8125 q 0,-1.39062 0.28125,-2.23437 0.29688,-0.85938 0.85938,-1.312505 0.57812,-0.46875 1.4375,-0.46875 0.625,0 1.09375,0.265625 0.48437,0.25 0.79687,0.73438 0.3125,0.46875 0.48438,1.17187 0.1875,0.6875 0.1875,1.84375 0,1.39063 -0.29688,2.25 -0.28125,0.84375 -0.84375,1.3125 -0.5625,0.46875 -1.42187,0.46875 -1.14063,0 -1.79688,-0.82812 -0.78125,-0.98438 -0.78125,-3.20313 z m 1,0 q 0,1.95313 0.45313,2.59375 0.45312,0.64063 1.125,0.64063 0.65625,0 1.10937,-0.64063 0.45313,-0.65625 0.45313,-2.59375 0,-1.9375 -0.45313,-2.57812 -0.45312,-0.64063 -1.125,-0.64063 -0.67187,0 -1.0625,0.5625 -0.5,0.71875 -0.5,2.65625 z m 7.56713,3.89063 -3.04688,-7.875005 1.125,0 2.04688,5.718755 q 0.25,0.6875 0.42187,1.29687 0.17188,-0.65625 0.42188,-1.29687 l 2.125,-5.718755 1.0625,0 -3.07813,7.875005 -1.07812,0 z" />
      <path
         style="fill:#666666;fill-rule:nonzero"
         id="path6781"
         d="m 286.1326,62.818672 0,0 c 0,-1.353569 1.09729,-2.450855 2.45087,-2.450855 l 42.1849,0 c 0.65,0 1.27338,0.258213 1.733,0.717838 0.45963,0.459625 0.71784,1.083012 0.71784,1.733017 l 0,42.184898 c 0,1.35357 -1.09726,2.45086 -2.45084,2.45086 l -42.1849,0 c -1.35358,0 -2.45087,-1.09729 -2.45087,-2.45086 z" />
      <path
         style="fill:#ffffff;fill-rule:nonzero"
         id="path6783"
         d="m 291.21878,103.39175 0,-38.960632 3.05511,0 0,38.960632 z" />
      <path
         style="fill:#000000;fill-opacity:0;fill-rule:nonzero"
         id="path6785"
         d="m 292.34058,75.39175 0,0 c 3.37457,0 6.11023,3.814392 6.11023,8.519684 0,4.705292 -2.73566,8.519684 -6.11023,8.519684 l 0,0 c 1.01837,-5.591042 1.01837,-11.448326 0,-17.039368 z" />
      <path
         style="fill-rule:nonzero;stroke:#ffffff;stroke-width:2;stroke-linecap:butt;stroke-linejoin:round"
         id="path6787"
         d="m 292.34058,75.39175 0,0 c 3.37457,0 6.11023,3.814392 6.11023,8.519684 0,4.705292 -2.73566,8.519684 -6.11023,8.519684 l 0,0 c 1.01837,-5.591042 1.01837,-11.448326 0,-17.039368 z" />
      <path
         style="fill:#ffffff;fill-rule:nonzero"
         id="path6789"
         d="m 311.8307,92.774414 0,-1.405502 -10.02716,0 0,-1.000016 10.02716,0 0,-1.40551 6.57129,1.905518 z" />
      <path
         style="fill:#ffffff;fill-rule:nonzero"
         id="path6791"
         d="m 328.13388,64.430954 0,38.960626 -3.05511,0 0,-38.960626 z" />
      <path
         style="fill:#000000;fill-opacity:0;fill-rule:nonzero"
         id="path6793"
         d="m 327.0121,92.430954 0,0 c -3.3746,0 -6.11023,-3.8144 -6.11023,-8.519691 0,-4.705292 2.73563,-8.519684 6.11023,-8.519684 l 0,0 c -1.01837,5.591049 -1.01837,11.448326 0,17.039375 z" />
      <path
         style="fill-rule:nonzero;stroke:#ffffff;stroke-width:2;stroke-linecap:butt;stroke-linejoin:round"
         id="path6795"
         d="m 327.0121,92.430954 0,0 c -3.3746,0 -6.11023,-3.8144 -6.11023,-8.519691 0,-4.705292 2.73563,-8.519684 6.11023,-8.519684 l 0,0 c -1.01837,5.591049 -1.01837,11.448326 0,17.039375 z" />
      <path
         style="fill:#ffffff;fill-rule:nonzero"
         id="path6797"
         d="m 311.8307,83.57887 0,-1.405502 -10.02716,0 0,-1.000016 10.02716,0 0,-1.405502 6.57129,1.90551 z" />
      <path
         style="fill:#ffffff;fill-rule:nonzero"
         id="path6799"
         d="m 308.37482,84.24653 0,1.405502 10.02716,0 0,1.000016 -10.02716,0 0,1.405502 -6.57129,-1.90551 z" />
      <path
         style="fill:#ffffff;fill-rule:nonzero"
         id="path6801"
         d="m 308.37482,75.05099 0,1.40551 10.02716,0 0,1.000008 -10.02716,0 0,1.40551 -6.57129,-1.905518 z" />
      <path
         style="fill:#000000;fill-opacity:0;fill-rule:nonzero"
         id="path6803"
         d="m 286.13272,62.819214 0,0 c 0,-1.353573 1.09729,-2.450859 2.45084,-2.450859 l 42.1849,0 c 0.65003,0 1.27341,0.258213 1.73303,0.717838 0.45963,0.459626 0.71784,1.083012 0.71784,1.733021 l 0,42.184896 c 0,1.35357 -1.09729,2.45086 -2.45087,2.45086 l -42.1849,0 c -1.35355,0 -2.45084,-1.09729 -2.45084,-2.45086 z" />
      <path
         style="fill-rule:nonzero;stroke:#f5d55e;stroke-width:2;stroke-linecap:butt;stroke-linejoin:round"
         id="path6805"
         d="m 286.13272,62.819214 0,0 c 0,-1.353573 1.09729,-2.450859 2.45084,-2.450859 l 42.1849,0 c 0.65003,0 1.27341,0.258213 1.73303,0.717838 0.45963,0.459626 0.71784,1.083012 0.71784,1.733021 l 0,42.184896 c 0,1.35357 -1.09729,2.45086 -2.45087,2.45086 l -42.1849,0 c -1.35355,0 -2.45084,-1.09729 -2.45084,-2.45086 z" />
      <path
         style="fill:#666666;fill-rule:nonzero"
         id="path6807"
         d="m 344.94104,65.70867 0,0 c 0,-1.353569 1.09726,-2.450859 2.45084,-2.450859 l 42.1849,0 c 0.65,0 1.27341,0.258213 1.73303,0.717838 0.45963,0.459629 0.71784,1.083012 0.71784,1.733021 l 0,42.1849 c 0,1.35357 -1.09729,2.45086 -2.45087,2.45086 l -42.1849,0 c -1.35358,0 -2.45084,-1.09729 -2.45084,-2.45086 z" />
      <path
         style="fill:#ffffff;fill-rule:nonzero"
         id="path6809"
         d="m 354.31082,75.50806 0,0 c -0.27893,-1.316147 0.63684,-2.619057 2.3587,-3.35585 1.72184,-0.736794 3.94782,-0.77826 5.73337,-0.106796 l 0,0 c 0.63248,-0.765267 1.7901,-1.293625 3.12274,-1.425263 1.33264,-0.131645 2.68372,0.148895 3.6446,0.756767 l 0,0 c 0.53881,-0.69384 1.59674,-1.160011 2.79843,-1.233093 1.20166,-0.07308 2.37698,0.257271 3.10891,0.873825 l 0,0 c 0.97342,-0.735466 2.52216,-1.045128 3.97608,-0.79499 1.45392,0.250137 2.55185,1.015136 2.81872,1.963989 l 0,0 c 1.19263,0.208877 2.18604,0.739868 2.72358,1.45578 0.53756,0.715912 0.56652,1.546516 0.0794,2.277214 l 0,0 c 1.17438,0.981399 1.44907,2.289116 0.72162,3.435119 -0.72745,1.145997 -2.34778,1.958115 -4.25632,2.133286 -0.0134,1.075561 -0.93212,2.062492 -2.40191,2.580368 -1.46982,0.517883 -3.2612,0.485855 -4.68375,-0.08375 -0.60589,1.288178 -2.31137,2.236 -4.37955,2.433983 -2.0682,0.197983 -4.12832,-0.389366 -5.29037,-1.508301 -1.42441,0.551529 -3.13361,0.710404 -4.742,0.440796 -1.6084,-0.269615 -2.9805,-0.945 -3.80683,-1.87381 l 0,0 c -1.45559,0.109368 -2.86291,-0.374862 -3.52359,-1.212364 -0.66064,-0.837509 -0.43396,-1.850006 0.56757,-2.534996 l 0,0 c -1.29843,-0.490692 -1.96094,-1.464401 -1.64212,-2.413361 0.31885,-0.948959 1.54681,-1.658142 3.04355,-1.757736 z" />
      <path
         style="fill:#000000;fill-opacity:0;fill-rule:nonzero"
         id="path6811"
         d="m 352.8806,79.72988 0,0 c 0.61273,0.23156 1.32056,0.336601 2.02847,0.301018 m 0.92722,3.446419 c 0.30444,-0.02287 0.60284,-0.07131 0.88751,-0.144066 m 7.66092,1.577026 c -0.21414,-0.206177 -0.3934,-0.426491 -0.53476,-0.657188 m 10.20505,-0.268532 0,0 c 0.11047,-0.234856 0.18204,-0.47657 0.21353,-0.721108 m 6.87186,-1.775421 c 0.0143,-1.145103 -0.99863,-2.193573 -2.6037,-2.69506 m 6.13836,-2.87323 c -0.25994,0.38993 -0.65676,0.735832 -1.15936,1.010582 m -1.6434,-4.743675 0,0 c 0.0443,0.157463 0.0648,0.317291 0.0612,0.477272 m -6.8559,-1.646218 0,0 c -0.24283,0.183457 -0.44287,0.388474 -0.59393,0.608666 m -5.31348,-0.249489 0,0 c -0.12939,0.166641 -0.22604,0.342972 -0.28766,0.524933 m -6.47979,0.143585 0,0 c 0.3778,0.142075 0.72735,0.313087 1.04092,0.50927 m -9.13287,2.953392 0,0 c 0.0385,0.181396 0.0992,0.360565 0.18164,0.535812" />
      <path
         style="fill:#f3f3f3;fill-rule:nonzero"
         id="path6813"
         d="m 353.06177,91.58981 0,0 c -0.31311,-1.148056 0.36374,-2.332565 1.51181,-2.645668 q 2.07874,-0.566933 3.59055,-3.212601 -1.51181,2.645668 -0.94489,4.724411 l 0,0 c 0.31311,1.148056 -0.36374,2.332566 -1.51181,2.645668 l 0,0 c -1.14804,0.313111 -2.33255,-0.363754 -2.64566,-1.51181 z" />
      <path
         style="fill:#f3f3f3;fill-rule:nonzero"
         id="path6815"
         d="m 363.1707,93.44808 0,0 c -0.31311,-1.148056 0.36377,-2.332565 1.51181,-2.645668 q 2.07874,-0.566933 3.59055,-3.212601 -1.51181,2.645668 -0.94489,4.724411 l 0,0 c 0.31311,1.148056 -0.36374,2.332558 -1.51181,2.645668 l 0,0 c -1.14804,0.313103 -2.33255,-0.363754 -2.64566,-1.51181 z" />
      <path
         style="fill:#f3f3f3;fill-rule:nonzero"
         id="path6817"
         d="m 354.20383,99.0234 0,0 c -0.46967,-1.713394 0.53857,-3.483101 2.25195,-3.952759 q 3.10239,-0.850395 5.35434,-4.803146 -2.25195,3.952751 -1.40158,7.055114 l 0,0 c 0.46967,1.713387 -0.53857,3.483091 -2.25195,3.952761 l 0,0 c -1.71341,0.46966 -3.48309,-0.53858 -3.95276,-2.25197 z" />
      <path
         style="fill:#f3f3f3;fill-rule:nonzero"
         id="path6819"
         d="m 364.51584,101.44283 0,0 c -0.31311,-1.14806 0.36374,-2.332565 1.51181,-2.645668 q 2.07874,-0.566933 3.59055,-3.212601 -1.51181,2.645668 -0.94489,4.724409 l 0,0 c 0.31311,1.14806 -0.36374,2.33256 -1.51181,2.64567 l 0,0 c -1.14807,0.3131 -2.33255,-0.36375 -2.64566,-1.51181 z" />
      <path
         style="fill:#f3f3f3;fill-rule:nonzero"
         id="path6821"
         d="m 370.09097,95.03915 0,0 c -0.46967,-1.713386 0.53857,-3.483101 2.25195,-3.952759 q 3.10236,-0.850395 5.35434,-4.803146 -2.25198,3.952751 -1.40158,7.055115 l 0,0 c 0.46967,1.713386 -0.53857,3.483101 -2.25195,3.952758 l 0,0 c -1.71341,0.469658 -3.48312,-0.538582 -3.95276,-2.251968 z" />
      <path
         style="fill:#000000;fill-opacity:0;fill-rule:nonzero"
         id="path6823"
         d="m 344.2245,65.70867 0,0 c 0,-1.353569 1.09729,-2.450859 2.45087,-2.450859 l 42.1849,0 c 0.65,0 1.27338,0.258213 1.733,0.717838 0.45963,0.459629 0.71784,1.083012 0.71784,1.733021 l 0,42.1849 c 0,1.35357 -1.09729,2.45086 -2.45084,2.45086 l -42.1849,0 c -1.35358,0 -2.45087,-1.09729 -2.45087,-2.45086 z" />
      <path
         style="fill-rule:nonzero;stroke:#0190dc;stroke-width:2;stroke-linecap:butt;stroke-linejoin:round"
         id="path6825"
         d="m 344.2245,65.70867 0,0 c 0,-1.353569 1.09729,-2.450859 2.45087,-2.450859 l 42.1849,0 c 0.65,0 1.27338,0.258213 1.733,0.717838 0.45963,0.459629 0.71784,1.083012 0.71784,1.733021 l 0,42.1849 c 0,1.35357 -1.09729,2.45086 -2.45084,2.45086 l -42.1849,0 c -1.35358,0 -2.45087,-1.09729 -2.45087,-2.45086 z" />
      <path
         style="fill:#666666;fill-rule:nonzero"
         id="path6827"
         d="m 167.34793,122.47466 0,0 c 0,-1.35357 1.09729,-2.45086 2.45087,-2.45086 l 42.18489,0 c 0.65001,0 1.27339,0.25822 1.73301,0.71784 0.45963,0.45963 0.71784,1.08301 0.71784,1.73302 l 0,42.1849 c 0,1.35358 -1.09728,2.45087 -2.45085,2.45087 l -42.18489,0 c -1.35358,0 -2.45087,-1.09729 -2.45087,-2.45087 z" />
      <path
         style="fill:#ffffff;fill-rule:nonzero"
         id="path6829"
         d="m 183.08777,155.94704 0,0 c -7.28842,-2.99191 -10.77849,-11.31166 -7.79529,-18.58267 2.98322,-7.27103 11.31001,-10.73995 18.59844,-7.74803 l 0,0 c -6.2618,-0.0248 -11.90763,3.73957 -14.27964,9.5209 -2.37199,5.78131 -0.99748,12.42752 3.47649,16.8098 z" />
      <path
         style="fill:#ffffff;fill-rule:nonzero"
         id="path6831"
         d="m 196.16298,133.58083 1.19685,0 0,25.85826 -1.19685,0 z" />
      <path
         style="fill:#ffffff;fill-rule:nonzero"
         id="path6833"
         d="m 209.69054,145.91153 0,1.19685 -25.85828,0 0,-1.19685 z" />
      <path
         style="fill:#ffffff;fill-rule:nonzero"
         id="path6835"
         d="m 205.5665,136.97618 0.83731,0.85515 -18.47574,18.09044 -0.83731,-0.85515 z" />
      <path
         style="fill:#ffffff;fill-rule:nonzero"
         id="path6837"
         d="m 206.22008,155.26817 -0.85515,0.83733 -18.09044,-18.47574 0.85515,-0.83731 z" />
      <path
         style="fill:#ffffff;fill-rule:nonzero"
         id="path6839"
         d="m 193.11511,146.52429 0,0 c 0,-2.0004 1.62164,-3.62204 3.62204,-3.62204 l 0,0 c 0.96063,0 1.88191,0.38161 2.56117,1.06087 0.67928,0.67927 1.06088,1.60055 1.06088,2.56117 l 0,0 c 0,2.00041 -1.62165,3.62205 -3.62205,3.62205 l 0,0 c -2.0004,0 -3.62204,-1.62164 -3.62204,-3.62205 z" />
      <path
         style="fill-rule:nonzero;stroke:#666666;stroke-width:2;stroke-linecap:butt;stroke-linejoin:round"
         id="path6841"
         d="m 193.11511,146.52429 0,0 c 0,-2.0004 1.62164,-3.62204 3.62204,-3.62204 l 0,0 c 0.96063,0 1.88191,0.38161 2.56117,1.06087 0.67928,0.67927 1.06088,1.60055 1.06088,2.56117 l 0,0 c 0,2.00041 -1.62165,3.62205 -3.62205,3.62205 l 0,0 c -2.0004,0 -3.62204,-1.62164 -3.62204,-3.62205 z" />
      <path
         style="fill:#000000;fill-opacity:0;fill-rule:nonzero"
         id="path6843"
         d="m 167.34662,122.47466 0,0 c 0,-1.35357 1.09729,-2.45086 2.45087,-2.45086 l 42.18489,0 c 0.65001,0 1.27339,0.25822 1.73301,0.71784 0.45963,0.45963 0.71784,1.08301 0.71784,1.73302 l 0,42.1849 c 0,1.35358 -1.09728,2.45087 -2.45085,2.45087 l -42.18489,0 c -1.35358,0 -2.45087,-1.09729 -2.45087,-2.45087 z" />
      <path
         style="fill-rule:nonzero;stroke:#0190dc;stroke-width:2;stroke-linecap:butt;stroke-linejoin:round"
         id="path6845"
         d="m 167.34662,122.47466 0,0 c 0,-1.35357 1.09729,-2.45086 2.45087,-2.45086 l 42.18489,0 c 0.65001,0 1.27339,0.25822 1.73301,0.71784 0.45963,0.45963 0.71784,1.08301 0.71784,1.73302 l 0,42.1849 c 0,1.35358 -1.09728,2.45087 -2.45085,2.45087 l -42.18489,0 c -1.35358,0 -2.45087,-1.09729 -2.45087,-2.45087 z" />
      <path
         style="fill:#666666;fill-rule:nonzero"
         id="path6847"
         d="m 288.14035,123.66028 0,0 c 0,-1.35357 1.09729,-2.45085 2.45087,-2.45085 l 42.1849,0 c 0.65,0 1.27338,0.25821 1.733,0.71783 0.45963,0.45963 0.71787,1.08302 0.71787,1.73302 l 0,42.18491 c 0,1.35356 -1.09729,2.45085 -2.45087,2.45085 l -42.1849,0 c -1.35358,0 -2.45087,-1.09729 -2.45087,-2.45085 z" />
      <path
         style="fill:#000000;fill-opacity:0;fill-rule:nonzero"
         id="path6849"
         d="m 292.9122,139.47122 39.27557,0" />
      <path
         style="fill-rule:nonzero;stroke:#666666;stroke-width:1;stroke-linecap:butt;stroke-linejoin:round"
         id="path6851"
         d="m 292.9122,139.47122 39.27557,0" />
      <path
         style="fill:#000000;fill-opacity:0;fill-rule:nonzero"
         id="path6853"
         d="m 288.14166,123.66028 0,0 c 0,-1.35357 1.09729,-2.45085 2.45087,-2.45085 l 42.1849,0 c 0.65,0 1.27338,0.25821 1.733,0.71783 0.45963,0.45963 0.71787,1.08302 0.71787,1.73302 l 0,42.18491 c 0,1.35356 -1.09729,2.45085 -2.45087,2.45085 l -42.1849,0 c -1.35358,0 -2.45087,-1.09729 -2.45087,-2.45085 z" />
      <path
         style="fill-rule:nonzero;stroke:#0190dc;stroke-width:2;stroke-linecap:butt;stroke-linejoin:round"
         id="path6855"
         d="m 288.14166,123.66028 0,0 c 0,-1.35357 1.09729,-2.45085 2.45087,-2.45085 l 42.1849,0 c 0.65,0 1.27338,0.25821 1.733,0.71783 0.45963,0.45963 0.71787,1.08302 0.71787,1.73302 l 0,42.18491 c 0,1.35356 -1.09729,2.45085 -2.45087,2.45085 l -42.1849,0 c -1.35358,0 -2.45087,-1.09729 -2.45087,-2.45085 z" />
      <path
         style="fill:#000000;fill-rule:nonzero"
         id="path6857"
         d="m 290.65027,135.54259 4.43936,0 0,20.91396 -4.43936,0 z" />
      <path
         style="fill:#ffffff;fill-rule:nonzero"
         id="path6859"
         d="m 304.2563,137.23164 1.78159,0 0,18.86931 -1.78159,0 z" />
      <path
         style="fill:#ffffff;fill-rule:nonzero"
         id="path6861"
         d="m 308.70276,137.23164 1.78159,0 0,18.86931 -1.78159,0 z" />
      <path
         style="fill:#ffffff;fill-rule:nonzero"
         id="path6863"
         d="m 313.1494,137.23164 1.78159,0 0,18.86931 -1.78159,0 z" />
      <path
         style="fill:#ffffff;fill-rule:nonzero"
         id="path6865"
         d="m 317.59607,137.23164 1.78159,0 0,18.86931 -1.78159,0 z" />
      <path
         style="fill:#ffffff;fill-rule:nonzero"
         id="path6867"
         d="m 299.80945,137.23164 1.78159,0 0,18.86931 -1.78159,0 z" />
      <path
         style="fill:#ffffff;fill-rule:nonzero"
         id="path6869"
         d="m 322.04272,137.23164 1.78159,0 0,18.86931 -1.78159,0 z" />
      <path
         style="fill:#ffffff;fill-rule:nonzero"
         id="path6871"
         d="m 326.4894,137.23164 1.78156,0 0,18.86931 -1.78156,0 z" />
      <path
         style="fill:#ffffff;fill-rule:nonzero"
         id="path6873"
         d="m 330.93607,137.23164 1.78159,0 0,18.86931 -1.78159,0 z" />
      <path
         style="fill:#ffffff;fill-rule:nonzero"
         id="path6875"
         d="m 332.5208,154.31917 0,1.78178 -32.71106,0 0,-1.78178 z" />
      <path
         style="fill:#ffffff;fill-rule:nonzero"
         id="path6877"
         d="m 332.5208,137.16939 0,1.78178 -32.71106,0 0,-1.78178 z" />
      <path
         style="fill:#000000;fill-rule:nonzero"
         id="path6879"
         d="m 320.32388,135.54259 4.43936,0 0,20.91396 -4.43936,0 z" />
      <path
         style="fill:#000000;fill-rule:nonzero"
         id="path6881"
         d="m 297.25134,145.99939 5.93677,-4.65891 0,2.32946 9.03821,0 0,-2.32946 5.93673,4.65891 -5.93673,4.6589 0,-2.32945 -9.03821,0 0,2.32945 z" />
      <path
         style="fill:#666666;fill-rule:nonzero"
         id="path6883"
         d="m 288.3732,7.8024406 0,0 c 0,-1.3535719 1.09729,-2.4508586 2.45084,-2.4508586 l 42.1849,0 c 0.65003,0 1.27341,0.2582149 1.73303,0.7178397 0.45963,0.4596252 0.71784,1.0830107 0.71784,1.7330189 l 0,42.1849004 c 0,1.353569 -1.09729,2.450859 -2.45087,2.450859 l -42.1849,0 c -1.35355,0 -2.45084,-1.09729 -2.45084,-2.450859 z" />
      <path
         style="fill:#000000;fill-opacity:0;fill-rule:nonzero"
         id="path6885"
         d="m 288.3735,7.8029327 0,0 c 0,-1.3535719 1.09729,-2.4508586 2.45087,-2.4508586 l 42.1849,0 c 0.65,0 1.27338,0.258215 1.733,0.7178397 0.45963,0.4596252 0.71787,1.0830107 0.71787,1.7330189 l 0,42.1849003 c 0,1.353569 -1.09729,2.450859 -2.45087,2.450859 l -42.1849,0 c -1.35358,0 -2.45087,-1.09729 -2.45087,-2.450859 z" />
      <path
         style="fill-rule:nonzero;stroke:#4a86e8;stroke-width:2;stroke-linecap:butt;stroke-linejoin:round"
         id="path6887"
         d="m 288.3735,7.8029327 0,0 c 0,-1.3535719 1.09729,-2.4508586 2.45087,-2.4508586 l 42.1849,0 c 0.65,0 1.27338,0.258215 1.733,0.7178397 0.45963,0.4596252 0.71787,1.0830107 0.71787,1.7330189 l 0,42.1849003 c 0,1.353569 -1.09729,2.450859 -2.45087,2.450859 l -42.1849,0 c -1.35358,0 -2.45087,-1.09729 -2.45087,-2.450859 z" />
      <path
         style="fill:#000000;fill-rule:nonzero"
         id="path6889"
         d="m 294.66412,11.655969 34.42633,0 0,34.42633 -34.42633,0 z" />
      <path
         style="fill:#ffffff;fill-rule:nonzero"
         id="path6891"
         d="m 298.84207,15.833921 26.0704,0 0,26.070425 -26.0704,0 z" />
      <path
         style="fill-rule:nonzero;stroke:#b7b7b7;stroke-width:1;stroke-linecap:butt;stroke-linejoin:round"
         id="path6893"
         d="m 298.84207,15.833921 26.0704,0 0,26.070425 -26.0704,0 z" />
      <path
         style="fill:#b7b7b7;fill-rule:nonzero"
         id="path6895"
         d="m 311.44278,15.833921 0.86902,0 0,26.070425 -0.86902,0 z" />
      <path
         style="fill:#666666;fill-rule:nonzero"
         id="path6897"
         d="m 299.3718,39.907806 12.06592,0 0,1.470638 -12.06592,0 z" />
      <path
         style="fill:#666666;fill-rule:nonzero"
         id="path6899"
         d="m 312.30518,39.907806 12.06592,0 0,1.470638 -12.06592,0 z" />
      <path
         style="fill:#d9d9d9;fill-rule:nonzero"
         id="path6901"
         d="m 312.30518,38.979256 12.06592,0 0,1.470642 -12.06592,0 z" />
      <path
         style="fill:#d9d9d9;fill-rule:nonzero"
         id="path6903"
         d="m 299.3718,38.979256 12.06592,0 0,1.470642 -12.06592,0 z" />
      <path
         style="fill:#666666;fill-rule:nonzero"
         id="path6905"
         d="m 349.7519,7.801175 0,0 c 0,-1.3535719 1.09729,-2.450858 2.45087,-2.450858 l 42.18487,0 c 0.65003,0 1.27341,0.2582145 1.73303,0.7178397 0.45963,0.4596248 0.71784,1.0830102 0.71784,1.7330184 l 0,42.1848999 c 0,1.353573 -1.09729,2.450859 -2.45087,2.450859 l -42.18487,0 c -1.35358,0 -2.45087,-1.097286 -2.45087,-2.450859 z" />
      <path
         style="fill:#ffffff;fill-rule:nonzero"
         id="path6907"
         d="m 358.31454,28.907568 0,0 c 0,-4.122566 3.34201,-7.464567 7.46457,-7.464567 4.12256,0 7.46457,3.342001 7.46457,7.464567 l 0,0 c -4.89862,-1.244095 -10.03052,-1.244095 -14.92914,0 z" />
      <path
         style="fill:#ffffff;fill-rule:nonzero"
         id="path6909"
         d="m 373.24368,43.8367 0,0 c -4.12256,0 -7.46457,-3.341999 -7.46457,-7.464565 0,-4.122566 3.34201,-7.464567 7.46457,-7.464567 l 0,0 c -1.24408,4.898622 -1.24408,10.030512 0,14.929132 z" />
      <path
         style="fill:#ffffff;fill-rule:nonzero"
         id="path6911"
         d="m 388.17282,28.907568 0,0 c 0,4.122564 -3.34201,7.464567 -7.46457,7.464567 -4.12256,0 -7.46457,-3.342003 -7.46457,-7.464567 l 0,0 c 4.89862,1.244095 10.03052,1.244095 14.92914,0 z" />
      <path
         style="fill:#ffffff;fill-rule:nonzero"
         id="path6913"
         d="m 373.30667,13.978434 0,0 c 4.12256,0 7.46457,3.342001 7.46457,7.464567 0,4.122566 -3.34201,7.464567 -7.46457,7.464567 l 0,0 c 1.24411,-4.898623 1.24411,-10.030512 0,-14.929134 z" />
      <path
         style="fill:#ffffff;fill-rule:nonzero"
         id="path6915"
         d="m 371.43628,28.892025 0,0 c 0,-1.026293 0.83197,-1.858269 1.85825,-1.858269 l 0,0 c 0.49285,0 0.96551,0.195782 1.31399,0.544276 0.34851,0.348491 0.54428,0.821149 0.54428,1.313993 l 0,0 c 0,1.026293 -0.83197,1.858267 -1.85827,1.858267 l 0,0 c -1.02628,0 -1.85825,-0.831974 -1.85825,-1.858267 z" />
      <path
         style="fill-rule:nonzero;stroke:#666666;stroke-width:1;stroke-linecap:butt;stroke-linejoin:round"
         id="path6917"
         d="m 371.43628,28.892025 0,0 c 0,-1.026293 0.83197,-1.858269 1.85825,-1.858269 l 0,0 c 0.49285,0 0.96551,0.195782 1.31399,0.544276 0.34851,0.348491 0.54428,0.821149 0.54428,1.313993 l 0,0 c 0,1.026293 -0.83197,1.858267 -1.85827,1.858267 l 0,0 c -1.02628,0 -1.85825,-0.831974 -1.85825,-1.858267 z" />
      <path
         style="fill:#000000;fill-opacity:0;fill-rule:nonzero"
         id="path6919"
         d="m 354.87,28.892311 0,0 c 0,-10.175955 8.24924,-18.425198 18.4252,-18.425198 l 0,0 c 4.88666,0 9.57318,1.941221 13.02857,5.396615 3.45541,3.455395 5.39663,8.141916 5.39663,13.028582 l 0,0 c 0,10.175957 -8.24923,18.425198 -18.4252,18.425198 l 0,0 c -10.17596,0 -18.4252,-8.249241 -18.4252,-18.425198 z" />
      <path
         style="fill-rule:nonzero;stroke:#ffffff;stroke-width:2;stroke-linecap:butt;stroke-linejoin:round"
         id="path6921"
         d="m 354.87,28.892311 0,0 c 0,-10.175955 8.24924,-18.425198 18.4252,-18.425198 l 0,0 c 4.88666,0 9.57318,1.941221 13.02857,5.396615 3.45541,3.455395 5.39663,8.141916 5.39663,13.028582 l 0,0 c 0,10.175957 -8.24923,18.425198 -18.4252,18.425198 l 0,0 c -10.17596,0 -18.4252,-8.249241 -18.4252,-18.425198 z" />
      <path
         style="fill:#000000;fill-opacity:0;fill-rule:nonzero"
         id="path6923"
         d="m 349.7519,7.801175 0,0 c 0,-1.3535719 1.09729,-2.450858 2.45087,-2.450858 l 42.18487,0 c 0.65003,0 1.27341,0.2582145 1.73303,0.7178397 0.45963,0.4596248 0.71784,1.0830102 0.71784,1.7330184 l 0,42.1848999 c 0,1.353573 -1.09729,2.450859 -2.45087,2.450859 l -42.18487,0 c -1.35358,0 -2.45087,-1.097286 -2.45087,-2.450859 z" />
      <path
         style="fill-rule:nonzero;stroke:#e7221c;stroke-width:2;stroke-linecap:butt;stroke-linejoin:round"
         id="path6925"
         d="m 349.7519,7.801175 0,0 c 0,-1.3535719 1.09729,-2.450858 2.45087,-2.450858 l 42.18487,0 c 0.65003,0 1.27341,0.2582145 1.73303,0.7178397 0.45963,0.4596248 0.71784,1.0830102 0.71784,1.7330184 l 0,42.1848999 c 0,1.353573 -1.09729,2.450859 -2.45087,2.450859 l -42.18487,0 c -1.35358,0 -2.45087,-1.097286 -2.45087,-2.450859 z" />
    </g>
  </g>
</svg>
